<?xml version="1.0" standalone="no"?>
<!DOCTYPE svg PUBLIC "-//W3C//DTD SVG 1.1//EN" "http://www.w3.org/Graphics/SVG/1.1/DTD/svg11.dtd" >
<!--
2013-9-30: Created.
-->
<svg>
<metadata>
Created by iconfont
</metadata>
<defs>

<font id="iconfont" horiz-adv-x="1024" >
  <font-face
    font-family="iconfont"
    font-weight="500"
    font-stretch="normal"
    units-per-em="1024"
    ascent="896"
    descent="-128"
  />
    <missing-glyph />
    
    <glyph glyph-name="x" unicode="x" horiz-adv-x="1001"
d="M281 543q-27 -1 -53 -1h-83q-18 0 -36.5 -6t-32.5 -18.5t-23 -32t-9 -45.5v-76h912v41q0 16 -0.5 30t-0.5 18q0 13 -5 29t-17 29.5t-31.5 22.5t-49.5 9h-133v-97h-438v97zM955 310v-52q0 -23 0.5 -52t0.5 -58t-10.5 -47.5t-26 -30t-33 -16t-31.5 -4.5q-14 -1 -29.5 -0.5
t-29.5 0.5h-32l-45 128h-439l-44 -128h-29h-34q-20 0 -45 1q-25 0 -41 9.5t-25.5 23t-13.5 29.5t-4 30v167h911zM163 247q-12 0 -21 -8.5t-9 -21.5t9 -21.5t21 -8.5q13 0 22 8.5t9 21.5t-9 21.5t-22 8.5zM316 123q-8 -26 -14 -48q-5 -19 -10.5 -37t-7.5 -25t-3 -15t1 -14.5
t9.5 -10.5t21.5 -4h37h67h81h80h64h36q23 0 34 12t2 38q-5 13 -9.5 30.5t-9.5 34.5q-5 19 -11 39h-368zM336 498v228q0 11 2.5 23t10 21.5t20.5 15.5t34 6h188q31 0 51.5 -14.5t20.5 -52.5v-227h-327z" />
    

    
    <glyph glyph-name="xiugai" unicode="&#58932;" d="M958.413747-81.648187l-41.037648 222.842321c-2.068102 11.202133-7.463995 21.499663-15.515369 29.53671L339.631746 732.960853c-10.529821 10.543124-24.825408 16.445554-39.71042 16.445554-14.899338 0-29.1806-5.90243-39.71042-16.445554L78.406233 551.141854c-21.922289-21.922289-21.922289-57.469899 0-79.419817l562.243311-562.202379c8.03807-8.051373 18.3356-13.459546 29.52443-15.514345l222.842321-41.050951c3.396353-0.630357 6.791683-0.945535 10.188037-0.945535 14.761192 0 29.085432 5.820566 39.697117 16.445554C955.977255-118.469813 961.768145-99.833361 958.413747-81.648187zM709.196733-56.097254l158.267607 158.266583 12.117992-65.796542L775.007601-68.202966 709.196733-56.097254zM118.116653 511.44576l40.996716 40.996716L556.601312 154.942253c3.65525-3.65525 8.43409-5.490038 13.227256-5.490038 4.792143 0 9.584286 1.834788 13.240559 5.490038 7.312546 7.312546 7.312546 19.157315 0 26.469861L185.583231 578.912337l43.777039 43.762713 82.487689-82.487689c3.656273-3.669576 8.449439-5.491061 13.240559-5.491061 4.779863 0 9.572006 1.821485 13.228279 5.491061 7.312546 7.312546 7.312546 19.156292 0 26.455535L255.829108 649.158215l44.092217 44.092217L852.771709 140.401072l-44.106544-44.093241L408.714124 496.259896c-7.311523 7.311523-19.170618 7.311523-26.483164 0-7.311523-7.312546-7.311523-19.157315 0-26.469861l399.965367-399.964344-43.777039-43.764759-84.952834 84.953857c-7.312546 7.312546-19.169595 7.312546-26.483164 0-7.312546-7.312546-7.312546-19.157315 0-26.469861l84.981487-84.952834-40.998763-40.984437L118.116653 511.44576zM819.701522-76.444675l68.111261 68.110237 15.390525-83.501786L819.701522-76.444675z"  horiz-adv-x="1024" />

    
    <glyph glyph-name="search" unicode="&#58909;" d="M985.021152-55.806578 711.021508 218.204444C778.343819 289.088 819.872708 384.615822 819.872708 490.019556 819.872708 708.279467 642.936885 885.215289 424.688352 885.215289 206.428441 885.215289 29.492618 708.279467 29.492618 490.019556 29.492618 271.805156 206.428441 94.8352 424.688352 94.8352 511.512174 94.8352 591.600352 123.177244 656.806397 170.679467L934.151108-106.676622C948.236797-120.728178 970.912708-120.728178 984.987019-106.676622 999.072708-92.5568 999.072708-69.892267 985.021152-55.806578L985.021152-55.806578ZM424.688352 159.176533C246.125508 159.176533 101.343285 303.958756 101.343285 482.5216 101.343285 661.1072 246.125508 805.855289 424.688352 805.855289 603.273952 805.855289 748.022041 661.073067 748.022041 482.5216 748.022041 303.992889 603.273952 159.176533 424.688352 159.176533L424.688352 159.176533Z"  horiz-adv-x="1024" />

    
    <glyph glyph-name="saomiao" unicode="&#58912;" d="M1024 353.88235299999997H30.117647a30.117647 30.117647 0 0 0 0 60.235294h993.882353a30.117647 30.117647 0 0 0 0-60.235294z m0 210.823529a30.117647 30.117647 0 0 0-30.117647-30.117647 30.117647 30.117647 0 0 0-30.117647 30.117647V655.058824a180.705882 180.705882 0 0 1-180.705882 180.705882H661.624471a30.117647 30.117647 0 0 0-30.117647 30.117647 30.117647 30.117647 0 0 0 30.117647 30.117647H783.058824a240.941176 240.941176 0 0 0 240.941176-240.941176v-90.352942zM392.493176 835.764706H271.058824a180.705882 180.705882 0 0 1-180.705883-180.705882v-90.352942a30.117647 30.117647 0 0 0-30.117647-30.117647 30.117647 30.117647 0 0 0-30.117647 30.117647V655.058824a240.941176 240.941176 0 0 0 240.941177 240.941176h121.434352a30.117647 30.117647 0 0 0 30.117648-30.117647 30.117647 30.117647 0 0 0-30.117648-30.117647zM60.235294 233.41176499999995a30.117647 30.117647 0 0 0 30.117647-30.117647v-90.352942a180.705882 180.705882 0 0 1 180.705883-180.705882h121.434352a30.117647 30.117647 0 0 0 30.117648-30.117647 30.117647 30.117647 0 0 0-30.117648-30.117647H271.058824a240.941176 240.941176 0 0 0-240.941177 240.941176v90.352942a30.117647 30.117647 0 0 0 30.117647 30.117647z m571.301647-301.176471H783.058824a180.705882 180.705882 0 0 1 180.705882 180.705882v90.352942a30.117647 30.117647 0 0 0 30.117647 30.117647 30.117647 30.117647 0 0 0 30.117647-30.117647v-90.352942a240.941176 240.941176 0 0 0-240.941176-240.941176h-151.552c-5.210353 0-3.855059 1.445647 0 3.794824v52.645647c-3.855059 2.349176-5.059765 3.794824 0 3.794823z"  horiz-adv-x="1024" />

    
    <glyph glyph-name="dayuhao" unicode="&#58881;" d="M299.776-94.336a32.142 32.142 0 0 0-22.656 9.344c-12.48 12.48-12.48 32.768 0 45.248l423.616 423.616L277.12 807.616c-12.48 12.48-12.48 32.768 0 45.248s32.768 12.48 45.248 0L768.64 406.528c12.48-12.48 12.48-32.768 0-45.248L322.368-84.992c-6.272-6.208-14.4-9.344-22.592-9.344z"  horiz-adv-x="1024" />

    
    <glyph glyph-name="shijian" unicode="&#58885;" d="M512-37.64705900000001a421.647059 421.647059 0 1 0 421.647059 421.647059 421.647059 421.647059 0 0 0-421.647059-421.647059z m210.823529 391.529412h-180.705882v240.941176a30.117647 30.117647 0 0 1-60.235294 0v-271.058823a30.117647 30.117647 0 0 1 30.117647-30.117647h210.823529a30.117647 30.117647 0 0 1 0 60.235294z"  horiz-adv-x="1024" />

    
    <glyph glyph-name="146" unicode="&#58886;" d="M546.466687 487.560369a36.021355 36.021355 0 0 1-20.386679 47.520028 38.133356 38.133356 0 0 1-49.192029-19.653345 36.050688 36.050688 0 0 1 20.533346-47.549362 38.133356 38.133356 0 0 1 49.045362 19.682679z m-5.86667-54.941367l-3.197335-1.965334a57.610701 57.610701 0 0 1-16.690677-85.066718l43.32536-100.32006a68.464041 68.464041 0 0 1 92.077388-22.76268l16.925343 9.680006a63.624038 63.624038 0 0 1 23.466681 88.93872l-70.400042 84.83205a62.069371 62.069371 0 0 1-85.477385 26.664016z m40.744025 100.437394l1.965334-3.109335a62.186704 62.186704 0 0 1 88.000053-16.133343l103.840062 41.888025a63.712038 63.712038 0 0 1 23.466681 88.93872l-10.002673 16.338676a68.464041 68.464041 0 0 1-92.077388 22.645347L608.800058 615.600445a58.138701 58.138701 0 0 1-27.426683-82.544049z m-99.058726 44.000026L485.599984 579.080424a57.640035 57.640035 0 0 1 16.690677 85.066717l-43.266693 100.349394a68.552041 68.552041 0 0 1-92.106722 22.704013l-16.954676-9.621339a63.712038 63.712038 0 0 1-23.466681-88.997387l70.400042-84.861384a62.098704 62.098704 0 0 1 85.418718-26.605349z m-42.240026-116.893403l-1.965334 3.138668a62.245371 62.245371 0 0 1-88.000053 16.133343l-103.869396-41.858691a63.829372 63.829372 0 0 1-23.46668-88.997387l10.032006-16.36801a68.464041 68.464041 0 0 1 92.077388-22.58668l87.794719 68.024041a58.109368 58.109368 0 0 1 27.39735 82.573383zM511.706666 133.21348999999998l51.480031 3.138668a381.568229 381.568229 0 1 1-102.930728 0zM176.221132 501.112377a335.690868 335.690868 0 1 0 335.456201-324.074861A330.293531 330.293531 0 0 0 176.221132 501.112377z m241.413478 0.352a92.488055 92.488055 0 0 0 94.042723 90.933388 92.546722 92.546722 0 0 0 94.10139-90.933388 92.488055 92.488055 0 0 0-94.042723-90.933388 92.517389 92.517389 0 0 0-94.042723 90.933388z m16.514677 0a76.266712 76.266712 0 0 1 77.528046-74.946712 76.266712 76.266712 0 0 1 77.616047 74.946712 76.266712 76.266712 0 0 1-77.586714 74.917378 76.266712 76.266712 0 0 1-77.528046-74.917378z m86.914718-326.920196c44.82136 0.352 82.925383-17.834677 85.066718-40.656024l18.626678-126.749409c2.288001-22.821347-44.322693-40.304024-104.133396-39.072024-59.840036 1.232001-106.568064 20.328012-104.280062 42.680026l19.096011 122.760073c2.346668 22.352013 40.714691 40.685358 85.565385 41.066692z m319.733525-224.048134c9.738672-43.354693-30.448018-78.496047-89.73072-78.496047H260.261183c-59.282702 0-98.325392 35.200021-87.178719 78.496047a121.029406 121.029406 0 0 0 116.013402 78.466714h438.240263a116.42407 116.42407 0 0 0 113.490735-78.466714z m-41.653358 28.717351c8.448005-15.869343-26.400016-28.717351-77.850713-28.717351H295.34387c-51.450697 0-85.301384 12.848008-75.621378 28.717351 9.621339 15.869343 54.706699 28.776017 100.642727 28.776017h380.306894c45.965361 0 90.024054-12.906674 98.501392-28.776017z"  horiz-adv-x="1024" />

    
    <glyph glyph-name="xiaoxi" unicode="&#58887;" d="M877.417412 105.32141200000001h-436.705883l-162.635294-159.322353a28.370824 28.370824 0 0 0-19.696941-7.830588 27.828706 27.828706 0 0 0-28.099765 28.009411v139.14353H146.582588A56.079059 56.079059 0 0 0 90.352941 161.24988199999996V665.539765a56.079059 56.079059 0 0 0 56.139294 56.018823h730.925177A56.079059 56.079059 0 0 0 933.647059 665.630118v-504.289883a56.079059 56.079059 0 0 0-56.109177-56.018823h-0.12047z m-565.157647 167.725176h276.690823a28.129882 28.129882 0 0 1 0 55.958588h-276.690823a28.069647 28.069647 0 0 1-25.088-30.84047 28.250353 28.250353 0 0 1 25.088-25.118118z m427.670588 279.552h-427.670588a28.129882 28.129882 0 0 1 0-55.988706h427.670588a28.129882 28.129882 0 0 1-0.120471 56.018824h0.120471z m0-111.73647h-427.670588a28.129882 28.129882 0 0 1 0-56.018824h427.670588a28.129882 28.129882 0 0 1-0.120471 56.018824h0.120471z"  horiz-adv-x="1024" />

    
    <glyph glyph-name="huore" unicode="&#58888;" d="M679.00891-115.35952199999997l-28.160682 2.637222c77.085699 43.044315 56.533554 135.377401 25.250644 167.933454-26.493473 27.584737-16.94491 103.579172-16.94491 103.579172s-51.713804-21.006838-50.834729-122.221604c-60.625796 51.077233 5.820076 132.770492-12.54954 197.033836a712.049969 712.049969 0 0 1-73.417838 150.74604h-5.516948c66.688375-156.899559-66.32462-281.243066-64.23303-261.297179a73.53909 73.53909 0 0 1-36.163287 76.055061h-11.306711v-5.759451c20.673396-32.131672-36.375477-138.105562-36.375477-138.105562-48.01563-106.974216 35.829845-161.537432 77.267576-181.149877-3.395045-1.273142-5.698825-2.243154-5.698825-2.243154H415.2867a1141.038098 1141.038098 0 0 0-125.707587 51.228797c-199.519493 85.755188-142.985939 332.835618-75.41849 384.064415s37.709245 230.378023 37.709245 230.378023c-0.485006 0 126.526035-37.1333 109.581125-258.417454 97.213463 81.208253-51.350049 281.909949 3.546609 424.835263A352.811817 352.811817 0 0 0 528.293183 896h12.579852c-120.19064-234.439951 130.34546-518.047423 125.707587-473.669341 45.681537 190.577188 150.836979 192.032207 150.83698 192.032208-87.907404-60.807673 25.129392-307.251532 25.129392-307.251532C981.592256-2.565229000000045 679.00891-115.35952199999997 679.00891-115.35952199999997z"  horiz-adv-x="1030" />

    
    <glyph glyph-name="xuehua" unicode="&#58889;" d="M862.991059 353.61129400000004l-95.533177-54.211765-71.469176 40.658824V428.272941l71.469176 40.568471 95.533177-54.211765 101.135059 57.494588-95.533177 54.211765 94.027294 53.458824v60.235294l-53.097411 30.117647-94.027295-53.428706V725.293176L714.390588 667.828706v-108.42353l-71.469176-40.628705-77.70353 44.15247v81.317647l95.533177 54.211765V813.2969410000001l-95.533177-54.211765V865.822118l-53.097411 30.117647-53.067295-30.117647v-106.736942l-95.533176 54.211765v-114.838588l95.533176-54.211765v-81.317647l-77.703529-44.15247-71.469176 40.628705v108.42353L208.775529 725.293176v-108.574117L114.778353 670.117647l-53.097412-30.117647v-60.235294l94.027294-53.368471L60.235294 471.973647l101.104941-57.404235 95.533177 54.211764 71.469176-40.56847v-88.214588l-71.469176-40.658824-95.533177 54.211765L60.235294 296.14682400000004l95.533177-54.211765-94.027295-53.368471v-60.235294l53.097412-30.117647 93.997177 53.368471v-108.42353l101.104941 57.464471v108.423529l71.469176 40.628706 77.70353-44.15247v-81.317648l-95.533177-54.211764v-114.868706l95.533177 54.211765v-106.827295l53.067294-30.117647 53.097412 30.117647V9.33647099999996l95.533176-54.211765v114.868706l-95.533176 54.211764v81.317648l77.703529 44.15247 71.469177-40.628706v-108.423529l101.104941-57.464471v108.42353l94.027294-53.368471 53.097412 30.117647v60.235294l-94.027295 53.368471 95.533177 54.211765z m-277.323294-11.354353L512 300.51388199999997l-73.547294 41.743059V425.863529L512 467.606588l73.547294-41.743059v-83.606588z"  horiz-adv-x="1024" />

    
    <glyph glyph-name="yangguang" unicode="&#58890;" d="M511.073958 709.2830730000001a324.672808 324.672808 0 1 0-324.672808-324.672808A324.672808 324.672808 0 0 0 511.073958 709.2830730000001z m0 186.386242a46.476311 46.476311 0 0 0 46.476312-46.476312V802.806879a46.476311 46.476311 0 0 0-92.922561 0V849.253128A46.476311 46.476311 0 0 0 511.073958 895.669315z m0-882.629042a46.446249 46.446249 0 0 0 46.476312-46.446249v-46.446249a46.476311 46.476311 0 1 0-92.922561 0v46.446249A46.476311 46.476311 0 0 0 511.073958 13.040272999999956zM0.014908 385.632383a46.446249 46.446249 0 0 0 46.566498 46.356062h46.446249a46.476311 46.476311 0 0 0-0.180373-92.92256H46.37097A46.446249 46.446249 0 0 0 0.014908 385.632383z m882.749291-1.653427a46.446249 46.446249 0 0 0 46.566498 46.356062h46.476312a46.446249 46.446249 0 1 0-0.180374-92.892497h-46.446249a46.416187 46.416187 0 0 0-46.416187 46.536435zM868.815293 749.746925a46.446249 46.446249 0 0 0 0.691433-65.686119l-32.497343-33.068527a46.446249 46.446249 0 1 0-66.377552 64.994686l32.497343 33.068527a46.446249 46.446249 0 0 0 65.686119 0.691433zM251.005026 119.16018199999996a46.446249 46.446249 0 0 0 0.691433-65.68612l-32.497343-33.068526a46.446249 46.446249 0 1 0-66.377552 64.994686l32.497343 33.068527a46.446249 46.446249 0 0 0 65.686119 0.691433zM146.628731 742.8927209999999a46.446249 46.446249 0 0 0 65.686119 0.571184l33.068527-32.58753a46.446249 46.446249 0 0 0-65.144998-66.137054l-33.068527 32.58753a46.446249 46.446249 0 0 0-0.541121 65.56587z m629.504501-618.742198A46.506374 46.506374 0 0 0 841.759226 124.72170700000004l33.068527-32.587531a46.446249 46.446249 0 0 0-65.144998-66.137053l-33.068527 32.58753a46.446249 46.446249 0 0 0-0.480996 65.56587z"  horiz-adv-x="1024" />

    
    <glyph glyph-name="Wrench" unicode="&#58891;" d="M943.776 643.2a26.336 26.336 0 0 1-28.448-4.256L774.4 512l-127.296 130.752 126.016 145.696a26.624 26.624 0 0 1 4.224 28.448 26.112 26.112 0 0 1-24.064 15.52h-7.68c-77.888 0-212.352-6.72-272.416-67.68l-12.096-12.064a241.856 241.856 0 0 1-41.6-254.24L96.736 168.672a114.336 114.336 0 0 1 0-160l39.392-40a110.304 110.304 0 0 1 157.6 0L621.248 299.2a245.76 245.76 0 0 1 109.056-27.712 213.088 213.088 0 0 1 152.544 64.96l11.904 12.128c65.216 66.176 64.224 207.648 64.512 269.856a27.04 27.04 0 0 1-15.488 24.768z"  horiz-adv-x="1024" />

    
    <glyph glyph-name="issue" unicode="&#58892;" d="M921.6 857.048615H102.4A65.378462 65.378462 0 0 1 39.384615 789.661538v-609.240615a65.378462 65.378462 0 0 1 63.015385-67.505231h94.050462v-168.093538a33.870769 33.870769 0 0 1 19.337846-31.113846 29.656615 29.656615 0 0 1 12.169846-2.63877 30.365538 30.365538 0 0 1 22.094769 9.688616l182.193231 192.157538H921.6a65.378462 65.378462 0 0 1 63.015385 67.505231V789.661538A65.378462 65.378462 0 0 1 921.6 857.048615zM288.137846 517.907692h479.232a34.304 34.304 0 0 0 0-67.50523H288.137846a34.304 34.304 0 0 0 0 67.50523z m0 135.010462h479.232a34.304 34.304 0 0 0 0-67.505231H288.137846a34.304 34.304 0 0 0 0 67.584z m0-270.060308h310.114462a34.304 34.304 0 0 0 0-67.505231H288.137846a34.304 34.304 0 0 0 0 67.584z"  horiz-adv-x="1024" />

    
    <glyph glyph-name="icon" unicode="&#58893;" d="M571.369166-102.13425600000005a70.628835 70.628835 0 0 0-46.495348-25.472049h-2.28343a70.865052 70.865052 0 0 0-46.613456 25.472049c-127.872049 159.367628-317.987236 386.057055-317.987236 607.707189 0 211.689658 164.052595 390.427067 357.711034 390.427067 222.988697 0 350.939485-178.737409 350.939485-390.427067s-175.272895-458.2213-295.271049-607.707189zM513.377932 702.262822a192.556094 192.556094 0 1 1 177.162629-191.926182 185.036524 185.036524 0 0 1-177.201999 191.926182z"  horiz-adv-x="1024" />

    
    <glyph glyph-name="dianhua" unicode="&#58894;" d="M224.137846 856.930462a82.156308 82.156308 0 0 1-46.513231-14.690462C176.246154 841.255385 37.494154 740.5489230000001 39.345231 683.283692c5.12-160.846769 161.28-349.892923 291.446154-480.17723s319.015385-286.601846 480.492307-291.761231h1.339077c56.477538 0 155.766154 137.097846 156.750769 138.476307a67.859692 67.859692 0 0 1-7.168 94.916924c-14.414769 10.161231-172.347077 115.239385-191.684923 127.094153a56.910769 56.910769 0 0 1-29.932307 7.68 100.706462 100.706462 0 0 1-46.001231-12.406153c-15.202462-7.876923-61.243077-34.225231-83.731692-47.261539a1124.864 1124.864 0 0 0-139.894154 123.273846 1125.060923 1125.060923 0 0 0-122.998154 140.012308c12.839385 22.567385 38.990769 68.647385 46.946461 83.771077a77.390769 77.390769 0 0 1 4.568616 76.406154c-11.500308 18.156308-116.066462 176.876308-126.857846 191.803077A58.407385 58.407385 0 0 1 224.452923 856.812308z"  horiz-adv-x="1024" />

    
    <glyph glyph-name="xingxing" unicode="&#58895;" d="M511.898263 896a73.972433 73.972433 0 0 1-66.889966-42.730884L329.209962 605.107341l-266.418801-40.920921a74.444598 74.444598 0 0 1-41.747209-125.359666l195.240008-201.299451-45.288442-279.127894a74.759374 74.759374 0 0 1 30.336567-72.792023 73.657657 73.657657 0 0 1 78.339954-4.328174L511.898263 10.219459000000029l232.14753-129.097635a73.933086 73.933086 0 0 1 108.637175 77.120196l-45.288442 279.127895 195.318701 201.299451a74.444598 74.444598 0 0 1-41.786555 125.359666l-266.418801 40.920921-115.798335 248.161775a73.893739 73.893739 0 0 1-66.889967 42.730884z"  horiz-adv-x="1024" />

    
    <glyph glyph-name="building" unicode="&#58896;" d="M915.377231-49.23076900000001H108.622769A29.853538 29.853538 0 0 0 78.769231-19.37723100000005v19.062154A29.853538 29.853538 0 0 0 108.622769 29.53846199999998H157.538462V659.692308a157.538462 157.538462 0 0 0 157.538461 157.538461h236.307692a157.538462 157.538462 0 0 0 157.538462-157.538461v-118.153846a157.538462 157.538462 0 0 0 157.538461-157.538462v-354.461538h48.915693a29.853538 29.853538 0 0 0 29.853538-29.853539v-19.062154a29.853538 29.853538 0 0 0-29.853538-29.853538zM531.692308 580.9230769999999h-236.307693a19.692308 19.692308 0 0 1 0-39.384615h236.307693a19.692308 19.692308 0 0 1 0 39.384615z m0-157.538462h-236.307693a19.692308 19.692308 0 0 1 0-39.384615h236.307693a19.692308 19.692308 0 0 1 0 39.384615z m0-157.538461h-236.307693a19.692308 19.692308 0 0 1 0-39.384616h236.307693a19.692308 19.692308 0 0 1 0 39.384616z"  horiz-adv-x="1024" />

    
    <glyph glyph-name="zhi" unicode="&#58897;" d="M512-64a448 448 0 1 0 448 448 448 448 0 0 0-448-448z m224 288h-160v192h128a32 32 0 0 1 0 64h-128V672a32 32 0 0 1-64 0v-448h-96V544a32 32 0 0 1-64 0v-320H288a32 32 0 0 1 0-64h448a32 32 0 0 1 0 64z"  horiz-adv-x="1024" />

    
    <glyph glyph-name="ganwangxianchang" unicode="&#58898;" d="M960 352h-96a46.656 46.656 0 0 0-25.6 8.448 47.264 47.264 0 0 0-37.6 13.056l-67.456 66.304c-18.208-31.072-49.44-69.536-77.344-55.808l-2.016 0.864-68.384-83.2a46.112 46.112 0 0 0 12.608-3.68l86.4-44.384a326.4 326.4 0 0 0 30.4-77.44v-192a48 48 0 0 0-48-48h-0.992a48 48 0 0 0-48 48v163.392l-64.832 33.28a250.432 250.432 0 0 0-41.6 30.688l-93.184-113.568a65.408 65.408 0 0 0-77.12-17.92 48.64 48.64 0 0 0-55.04-13.696L45.76 163.2a47.744 47.744 0 0 0-26.656 62.592 48.992 48.992 0 0 0 63.52 26.272l217.6-87.616a235.776 235.776 0 0 0 23.968 34.08l164.192 266.816a63.2 63.2 0 0 0-12.8 35.84l-153.088-122.656a46.336 46.336 0 0 0-63.648 10.88 44.8 44.8 0 0 0 2.176 63.616l219.392 175.776a43.488 43.488 0 0 0 51.648-0.608 65.536 65.536 0 0 0 80.608 18.56l26.976-13.28a64.448 64.448 0 0 0 29.696-12.992l0.576-1.888 117.12-57.6a63.648 63.648 0 0 0 33.984-72.608l41.312-40.608c0.608 0 1.088 0.352 1.696 0.352h96A48.064 48.064 0 0 0 960 352z m-179.488 288a96 96 0 1 0 97.504 96 96.768 96.768 0 0 0-97.504-96z"  horiz-adv-x="1024" />

    
    <glyph glyph-name="shoulizhong" unicode="&#58899;" d="M182.857143 384m-91.428572 0a91.428571 91.428571 0 1 1 182.857143 0 91.428571 91.428571 0 1 1-182.857143 0ZM512 384m-91.428571 0a91.428571 91.428571 0 1 1 182.857142 0 91.428571 91.428571 0 1 1-182.857142 0ZM841.142857 384m-91.428571 0a91.428571 91.428571 0 1 1 182.857143 0 91.428571 91.428571 0 1 1-182.857143 0Z"  horiz-adv-x="1024" />

    
    <glyph glyph-name="dianligongchengshi" unicode="&#58900;" d="M32-112v64c0 95.68 232.192 176.96 352 209.28v55.36a222.848 222.848 0 0 0-96 183.36v64a32 32 0 0 0 32 32h384a32 32 0 0 0 32-32v-64a222.848 222.848 0 0 0-96-183.36v-55.36c119.808-32.32 352-113.6 352-209.28v-64H32z m160 672a95.712 95.712 0 0 0 64.608 90.24C256.416 653.12 256 656 256 658.88c0 101.76 82.752 167.04 194.24 184.32A47.456 47.456 0 0 0 496 880h32a47.488 47.488 0 0 0 45.728-36.8c111.488-17.28 194.24-81.6 194.24-184.32 0-2.88-0.416-5.76-0.608-8.64A95.712 95.712 0 0 0 832 560v-32H192v32z"  horiz-adv-x="1024" />

    
    <glyph glyph-name="kaishishijian" unicode="&#58901;" d="M512-64a448 448 0 1 0 448 448 448 448 0 0 0-448-448z m181.152 363.84L544 385.92V640a32 32 0 0 1-64 0v-265.28a31.808 31.808 0 0 1 0-15.04V352a32 32 0 0 1 32-32 29.664 29.664 0 0 1 12.992 2.88l136.128-78.72a32.128 32.128 0 0 1 32.032 55.68z"  horiz-adv-x="1024" />

    
    <glyph glyph-name="baoxiushebei" unicode="&#58902;" d="M961.291818 51.839754h-46.062283a192.044291 192.044291 0 0 0-20.629604-36.495502l26.298808-47.518954a39.133256 39.133256 0 0 0-13.424991-52.243291l-63.54233-38.267128a35.786851 35.786851 0 0 0-50.117339 14.015532l-26.495656 47.83391a97.006382 97.006382 0 0 0-40.038754 0l-26.456286-47.83391a35.826221 35.826221 0 0 0-50.117339-14.015532l-63.54233 38.267128a39.133256 39.133256 0 0 0-13.424991 52.243291l26.298809 47.518954a191.886813 191.886813 0 0 0-20.629604 36.495502h-46.022915a42.715879 42.715879 0 0 0-42.794617 42.63714v67.754863a42.715879 42.715879 0 0 0 42.794617 42.676509h46.022915a193.107266 193.107266 0 0 0 20.629604 36.495502l-26.298809 47.518954a39.369473 39.369473 0 0 0 13.424991 52.282661l63.54233 38.267128a35.90496 35.90496 0 0 0 50.117339-14.015533l26.495656-47.873279a97.006382 97.006382 0 0 0 40.038754 0l26.495655 47.873279a35.90496 35.90496 0 0 0 50.11734 14.015533l63.54233-38.267128a39.369473 39.369473 0 0 0 13.42499-52.282661l-26.298808-47.518954a193.264744 193.264744 0 0 0 20.629604-36.495502h46.062284A42.715879 42.715879 0 0 0 1003.968327 162.231757v-67.754863a42.715879 42.715879 0 0 0-42.676509-42.63714z m-213.933717 161.808535a85.313649 85.313649 0 1 1 85.589234-85.274279 85.431757 85.431757 0 0 1-85.589234 85.274279z m-269.602153 42.676509H62.683591A42.715879 42.715879 0 0 0 19.731495 298.961938V512.187005a42.715879 42.715879 0 0 0 42.794618 42.63714h727.626605a42.715879 42.715879 0 0 0 42.794617-42.63714v-99.171703a292.672664 292.672664 0 0 1-355.191387-156.690504z m-308.066129 213.225067a63.975394 63.975394 0 1 1 64.172242-63.975394 64.093502 64.093502 0 0 1-64.172242 63.975394z m620.462899 127.911419H62.683591A42.715879 42.715879 0 0 0 19.731495 640.098424V853.323491A42.755248 42.755248 0 0 0 62.526113 896h727.626605a42.755248 42.755248 0 0 0 42.794617-42.676509V640.098424a42.715879 42.715879 0 0 0-42.794617-42.63714zM169.689819 810.686351a63.975394 63.975394 0 1 1 64.172242-63.975394 64.054133 64.054133 0 0 1-64.172242 63.975394zM62.72296 213.648289h399.009612a288.932564 288.932564 0 0 1 76.416148-298.499346H62.683591A42.715879 42.715879 0 0 0 19.731495-42.213918v213.225068a42.676509 42.676509 0 0 0 42.952096 42.637139z m106.966859-213.185698a63.975394 63.975394 0 1 1-64.172241 63.936025 64.054133 64.054133 0 0 1 64.172241-63.936025z"  horiz-adv-x="1024" />

    
    <glyph glyph-name="saoma-" unicode="&#58903;" d="M971.034483 542.896552a35.310345 35.310345 0 0 0-35.310345 35.310345v141.241379a105.931034 105.931034 0 0 1-105.931035 105.931034H653.241379a35.310345 35.310345 0 0 0 0 70.62069h211.862069a141.241379 141.241379 0 0 0 141.24138-141.241379v-176.551724a35.310345 35.310345 0 0 0-35.310345-35.310345zM370.758621 825.37931H194.206897a105.931034 105.931034 0 0 1-105.931035-105.931034v-141.241379a35.310345 35.310345 0 0 0-70.62069 0V754.758621a141.241379 141.241379 0 0 0 141.24138 141.241379h211.862069a35.310345 35.310345 0 0 0 0-70.62069zM52.965517 419.310345h918.068966a35.310345 35.310345 0 0 0 0-70.62069H52.965517a35.310345 35.310345 0 0 0 0 70.62069z m0-194.206897a35.310345 35.310345 0 0 0 35.310345-35.310345v-141.241379a105.931034 105.931034 0 0 1 105.931035-105.931034h176.551724a35.310345 35.310345 0 0 0 0-70.62069H158.896552a141.241379 141.241379 0 0 0-141.24138 141.241379V189.793103a35.310345 35.310345 0 0 0 35.310345 35.310345z m617.931035-282.482758h158.896551a105.931034 105.931034 0 0 1 105.931035 105.931034v141.241379a35.310345 35.310345 0 0 0 70.62069 0v-176.551724a141.241379 141.241379 0 0 0-141.24138-141.241379H670.896552a35.310345 35.310345 0 0 0 0 70.62069z"  horiz-adv-x="1024" />

    


  </font>
</defs>
</svg>
