<?xml version="1.0" standalone="no"?>
<!DOCTYPE svg PUBLIC "-//W3C//DTD SVG 1.1//EN" "http://www.w3.org/Graphics/SVG/1.1/DTD/svg11.dtd" >
<!--
2013-9-30: Created.
-->
<svg>
<metadata>
Created by iconfont
</metadata>
<defs>

<font id="iconfont" horiz-adv-x="1024" >
  <font-face
    font-family="iconfont"
    font-weight="500"
    font-stretch="normal"
    units-per-em="1024"
    ascent="896"
    descent="-128"
  />
    <missing-glyph />
    
    <glyph glyph-name="xiasanjiaoxing" unicode="&#58946;" d="M325.456896-50.27968M882.05824-50.27968M236.027904-65.161472M960.132096-65.161472M63.683584 23.262976M958.46912 23.262976M64.77824-46.791936M163.396608 522.831616c-40.577024 0-66.526208-54.183936-35.44064-85.25824L477.217792 88.295168c20.031488-20.031488 49.82272-20.031488 69.853184 0l349.274112 349.278208c30.30528 30.294016 6.677504 85.25824-34.927616 85.25824L163.396608 522.831616zM959.522816-46.791936"  horiz-adv-x="1024" />

    
    <glyph glyph-name="shangsanjiaoxing" unicode="&#58947;" d="M325.456896-50.27968M882.05824-50.27968M236.027904-65.161472M960.132096-65.161472M64.134144-33.290496M131.974144 163.247872c-30.418944-30.430208-6.474752-84.301824 34.917376-84.301824L858.258432 78.946048c42.899456 0 65.325056 53.85216 34.916352 84.301824L547.487744 509.430528c-19.930112 19.974144-49.374208 19.95264-69.327872 0L131.974144 163.247872zM960.51712-33.290496"  horiz-adv-x="1024" />

    
    <glyph glyph-name="iconfonticontrianglecopy" unicode="&#58928;" d="M814.39 255.622l-303.351 303.351-303.351-303.351 54.604-54.603 248.747 248.748 248.748-248.748z"  horiz-adv-x="1024" />

    
    <glyph glyph-name="xiajiantou" unicode="&#58953;" d="M832.522014 523.532917c0-8.782014-3.235694-17.565051-9.708106-24.26873L535.638373 201.778842c-12.932544-13.408381-33.9226-13.408381-46.855144 0l-287.172465 297.485345c-12.9438 13.408381-12.9438 35.130102 0 48.538483 12.932544 13.408381 33.9226 13.408381 46.855144 0l263.744893-273.215592 263.747963 273.215592c12.932544 13.408381 33.9226 13.408381 46.855144 0C829.28632 541.097968 832.522014 532.31493 832.522014 523.532917z"  horiz-adv-x="1024" />

    
    <glyph glyph-name="ic_arrow_r" unicode="&#58881;" d="M439.456 140.8l-59.744 59.744L563.168 384l-183.456 183.456L439.456 627.2l243.2-243.2z"  horiz-adv-x="1024" />

    
    <glyph glyph-name="dian" unicode="&#60446;" d="M512 272a112 112 0 1 1 0 224 112 112 0 0 1 0-224z"  horiz-adv-x="1024" />

    
    <glyph glyph-name="Location" unicode="&#58908;" d="M874.048 362.66700000000003C863.424 179.37 716.629 32.57600000000002 533.333 21.951999999999998v-43.285a21.333 21.333 0 0 0-42.666 0v43.285C307.37 32.57600000000002 160.576 179.37099999999998 149.952 362.66700000000003h-43.285a21.333 21.333 0 0 0 0 42.666h43.285c10.624 183.296 157.419 330.091 340.715 340.715v43.285a21.333 21.333 0 0 0 42.666 0v-43.285c183.296-10.624 330.091-157.419 340.715-340.715h42.816a21.333 21.333 0 1 0 0-42.666h-42.837z m-42.752 0H703.509a21.333 21.333 0 0 0 0 42.666h127.787c-10.517 159.744-138.24 287.446-297.963 297.963V576a21.333 21.333 0 0 0-42.666 0V703.296c-159.744-10.517-287.446-138.24-297.963-297.963H320a21.333 21.333 0 0 0 0-42.666H192.704c10.517-159.744 138.24-287.446 297.963-297.963V192a21.333 21.333 0 0 0 42.666 0v-127.296c159.744 10.517 287.446 138.24 297.963 297.963zM512 341.33299999999997a42.667 42.667 0 1 0 0 85.334 42.667 42.667 0 0 0 0-85.334z"  horiz-adv-x="1024" />

    
    <glyph glyph-name="biyan--" unicode="&#58929;" d="M829.44 419.84c7.68 15.36 2.56 33.28-12.8 40.96s-33.28 2.56-40.96-12.8c-48.64-87.04-140.8-140.8-240.64-140.8s-192 53.76-240.64 140.8c-7.68 15.36-28.16 20.48-40.96 12.8-17.92-7.68-23.04-25.6-15.36-40.96 20.48-38.4 51.2-71.68 84.48-99.84l-20.48-20.48c-12.8-12.8-12.8-30.72 0-43.52 5.12-5.12 12.8-10.24 20.48-10.24s15.36 2.56 20.48 10.24l30.72 30.72c38.4-20.48 81.92-33.28 128-38.4v-33.28c0-17.92 12.8-30.72 30.72-30.72s30.72 12.8 30.72 30.72v33.28c46.08 5.12 89.6 17.92 128 38.4l30.72-30.72c5.12-5.12 12.8-10.24 20.48-10.24s15.36 2.56 20.48 10.24c12.8 12.8 12.8 30.72 0 43.52l-20.48 20.48c35.84 28.16 64 61.44 87.04 99.84z"  horiz-adv-x="1024" />

    
    <glyph glyph-name="zhengyan" unicode="&#58944;" d="M512 691.2C233.984 691.2 51.2 412.16 51.2 412.16S186.368 76.8 512 76.8s460.8 335.36 460.8 335.36S790.016 691.2 512 691.2z m0-502.272A200.192 200.192 0 0 0 307.2 384a200.192 200.192 0 0 0 204.8 195.072A200.192 200.192 0 0 0 716.8 384a200.192 200.192 0 0 0-204.8-195.072zM512 486.4a102.4 102.4 0 1 1 102.4-102.4 102.4 102.4 0 0 1-102.4 102.4z"  horiz-adv-x="1024" />

    
    <glyph glyph-name="huidaodingbu" unicode="&#58891;" d="M516.43392 501.69856a5.69344 5.69344 0 0 1-8.87808 0l-73.04192-85.23776c-2.43712-2.84672-1.37216-5.18144 2.39616-5.18144h27.29984c3.75808 0 6.83008-3.072 6.83008-6.83008v-54.62016c0-3.75808 3.072-6.83008 6.83008-6.83008h68.25984c3.76832 0 6.83008 3.072 6.83008 6.83008v54.62016c0 3.76832 3.072 6.83008 6.83008 6.83008h27.29984c3.75808 0 4.83328 2.33472 2.38592 5.1712l-73.04192 85.248z m-72.704 18.83136h136.54016a13.64992 13.64992 0 1 1 0 27.31008H443.72992a13.64992 13.64992 0 1 1 0-27.31008z"  horiz-adv-x="1024" />

    
    <glyph glyph-name="fuwufeiyongjisuanshizhun" unicode="&#58892;" d="M0 896h1024v-1024H0zM813.728 32h-100.576a50.272 50.272 0 0 0-50.304 50.272v100.576c0 27.776 22.528 50.304 50.304 50.304v100.576H310.848v-100.576c27.776 0 50.304-22.528 50.304-50.304v-100.576c0-27.744-22.528-50.272-50.304-50.272H210.272A50.272 50.272 0 0 0 160 82.272v100.576c0 27.776 22.528 50.304 50.272 50.304V384c0 27.776 22.528 50.272 50.304 50.272h201.152v100.576h-100.576a50.272 50.272 0 0 0-50.304 50.304V685.728c0 27.744 22.528 50.272 50.304 50.272h301.696c27.776 0 50.304-22.528 50.304-50.272v-100.576c0-27.776-22.528-50.304-50.304-50.304h-100.576v-100.576h201.152c27.776 0 50.304-22.496 50.304-50.272v-150.848c27.744 0 50.272-22.528 50.272-50.304v-100.576c0-27.744-22.528-50.272-50.272-50.272zM461.728 534.848h-100.576a50.272 50.272 0 0 0-50.304 50.304V685.728c0 27.744 22.528 50.272 50.304 50.272h301.696c27.776 0 50.304-22.528 50.304-50.272v-100.576c0-27.776-22.528-50.304-50.304-50.304H461.76z"  horiz-adv-x="1024" />

    
    <glyph glyph-name="chaoyusuan" unicode="&#58893;" d="M0 896h1024v-1024H0zM475.2 216.352v188.16h77.696v-29.76c16 13.76 33.92 25.216 53.152 33.952V724.736a27.68 27.68 0 0 1-27.68 27.744H188.8a27.712 27.712 0 0 1-27.744-27.744v-565.952c0-15.328 12.448-27.68 27.744-27.68h298.688a222.016 222.016 0 0 0-12.288 85.216v0.032z m77.696 236.576H475.2v77.696h77.696v-77.696zM214.24 695.072H552.96v-100.352H214.24V695.072z m77.696-494.304H214.24v77.696h77.696v-77.696z m0 126.144H214.24v77.664h77.696v-77.664z m0 126.016H214.24v77.696h77.696v-77.696z m130.432-252.16h-77.664v77.696h77.664v-77.696z m0 126.144h-77.664v77.664h77.664v-77.664z m0 126.016h-77.664v77.696h77.664v-77.696zM678.4 422.4a211.232 211.232 0 1 0-196.288-289.28 207.2 207.2 0 0 0-14.816 73.664c-0.096 1.6-0.096 2.912-0.096 4.512a210.368 210.368 0 0 0 57.28 144.576A210.752 210.752 0 0 0 678.4 422.4z m58.464-200.992h-44.32L748.8 326.4h-28.32l-31.808-64.384c-8.48-17.536-13.728-29.12-15.584-34.848h-0.576c-5.6 13.92-21.408 47.072-47.36 99.232H595.2l55.616-104.96h-45.632v-23.328h53.504v-31.936h-53.504v-23.488h53.504V96h26.56v46.656h51.616v23.488h-51.616v31.968h51.616v23.296z"  horiz-adv-x="1024" />

    
    <glyph glyph-name="xiaofang" unicode="&#58894;" d="M0 896h1024v-1024H0zM504.992 196.576c-120 0-221.568 74.336-221.568 201.056a316 316 0 0 0 48.736 150.848c26.016 43.072 0 100.672 0 100.672a157.28 157.28 0 0 0 48.768-150.88A231.232 231.232 0 0 1 429.696 800S568.96 742.688 576 548.48c0 0 63.392 10.688 48.768 100.672 0 0 97.536-67.744 97.536-251.52 0-128.64-97.28-201.056-217.28-201.056zM297.152 114.272H736A41.152 41.152 0 0 0 736 32H297.152a41.152 41.152 0 0 0 0 82.272z"  horiz-adv-x="1024" />

    
    <glyph glyph-name="chengbenbuhelizengjia" unicode="&#58896;" d="M0 896h1024v-1024H0zM229.568 199.392c12.032-11.744 26.304-20.352 41.376-27.808 25.632-12.576 52.832-21.056 80.64-27.52 41.984-9.792 84.672-14.72 127.744-16.192 40.384-1.376 80.672 0.224 120.768 5.376 30.944 4 61.504 9.92 91.264 19.008 25.92 7.904 50.944 17.696 73.44 32.704 12.032 8 22.816 17.248 30.24 29.696 7.424 12.512 9.024 25.6 3.264 39.232-4.608 11.072-12.608 19.52-21.792 27.168-1.92 1.6-3.968 3.104-5.92 4.64-15.04-15.744-24.352-23.04-39.04-30.912-24.576-13.216-50.88-22.144-78.016-28.8-27.52-6.816-55.52-11.52-83.872-13.568-21.376-1.568-42.816-2.784-64.256-2.976-33.632-0.224-67.136 2.24-100.384 7.456-31.136 4.864-61.664 11.84-91.136 22.976-19.424 7.36-38.112 16.16-54.432 28.96-6.368 4.96-11.968 10.816-18.24 16.64-3.648-3.072-7.84-6.336-11.648-10.016-8.8-8.384-15.68-17.92-18.144-29.984l-0.96-4.896v-6.208c0.32-1.376 0.608-2.72 0.832-4.096 2.432-12.32 9.408-22.144 18.24-30.88z m553.376-38.144c-3.904 3.712-8.16 7.04-12.32 10.56-12.32-15.264-28.032-25.44-44.928-34.144-22.72-11.68-46.944-19.616-71.776-25.728a593.344 593.344 0 0 0-119.584-16.128 662.592 662.592 0 0 0-144.32 9.472c-32.928 5.92-65.024 14.496-95.36 28.512-14.56 6.72-28.48 14.56-40.448 25.216-4.384 3.84-8.32 8.192-12.736 12.576-3.936-3.328-8.128-6.624-12-10.24-8.736-8.448-15.616-18.016-18.048-30.048-0.352-1.696-0.64-3.456-0.96-5.152v-5.632c0.16-0.448 0.416-0.896 0.448-1.344 1.28-11.52 6.976-21.024 14.624-29.568 10.336-11.52 23.04-20.064 36.64-27.52 24.384-13.248 50.56-22.176 77.536-29.152 50.112-12.896 101.28-18.496 153.024-19.52a730.4 730.4 0 0 1 108.608 5.952 560.32 560.32 0 0 1 87.68 18.08c26.784 8 52.64 18.016 75.904 33.472 12.032 7.968 22.784 17.248 30.24 29.632 6.08 10.272 8.384 21.184 5.44 32.896-2.88 11.072-9.472 19.968-17.664 27.84zM254.24 302.112c18.4-13.12 38.912-22.24 60.352-29.536 44.352-15.04 90.336-22.304 137.024-25.728 17.344-1.28 34.816-1.6 52.224-2.368a846.4 846.4 0 0 1 86.432 4.992 578.24 578.24 0 0 1 80.416 14.656c28.704 7.488 56.32 17.376 81.344 33.152 15.104 9.504 28.352 20.96 37.76 36.096 10.464 16.736 14.368 34.752 10.56 54.08-3.424 16.992-12.288 31.328-24.736 43.52-16.608 16.32-36.768 27.328-58.24 36.224-28.16 11.712-57.664 18.976-87.712 24.416a672.896 672.896 0 0 1-95.232 9.888 732.224 732.224 0 0 1-112.96-4.352c-24.576-2.88-48.896-7.008-72.896-12.928-27.68-6.912-54.528-15.904-79.328-29.952-16.832-9.536-32.032-20.96-42.944-36.832-17.088-24.864-19.616-51.008-6.048-78.144 7.744-15.36 19.904-27.2 33.984-37.184zM752.864 647.872l-4.864-139.52c-0.64-19.296-17.76-34.336-38.144-33.6-20.416 0.704-36.416 16.896-35.744 36.16l3.68 104.64-110.816 3.904c-20.416 0.704-36.416 16.896-35.744 36.16 0.672 19.264 17.76 34.304 38.176 33.6l147.744-5.152c20.416-0.704 36.384-16.896 35.712-36.16z"  horiz-adv-x="1024" />

    
    <glyph glyph-name="huanjingpinzhi" unicode="&#58897;" d="M0 896h1024v-1024H0zM618.688 426.528l38.08-40.544a196.672 196.672 0 0 1-111.168-100.256h-188.928l84.48-84.48H160l112.448 112.64h-84.48l84.48 84.192h-56.32l84.32 84.48 84.288-84.48h-56.32l54.304-54.08 77.504 82.528H357.12l130.528 140.8h-102.464L539.744 736l154.56-168.672h-102.4l130.496-140.8h-103.936 0.224z m-290.048-112.64l13.44-13.504 12.608 13.504h-26.048zM272.32 200.96h56.32v-56.32h168.96v140.8h47.872a193.792 193.792 0 0 1 16-197.12H187.84v56.32h84.48v56.32zM863.68 150.56h-30.304c-3.616-8.544-8.192-16.64-13.6-24.224l17.312-31.264a26.08 26.08 0 0 0-8.832-34.624l-41.792-25.056a23.68 23.68 0 0 0-32.96 8.992l-17.44 31.84a62.272 62.272 0 0 0-26.336 0l-17.44-31.84a23.584 23.584 0 0 0-32.96-8.992l-41.824 25.056a26.112 26.112 0 0 0-8.832 34.624l17.312 31.264a127.296 127.296 0 0 0-13.568 24.224h-30.304a28.16 28.16 0 0 0-28.16 28.16v44.8a28.16 28.16 0 0 0 28.16 28.16h30.304c3.616 8.416 8.192 16.448 13.568 23.904l-17.312 31.552a25.696 25.696 0 0 0 8.832 34.336l41.824 25.344a23.488 23.488 0 0 0 32.96-9.28l17.44-31.552c8.672 1.888 17.664 1.888 26.336 0l17.44 31.552a23.52 23.52 0 0 0 32.96 9.28l41.792-25.344c11.68-7.232 15.552-22.4 8.832-34.336l-17.28-31.552c5.376-7.456 9.92-15.488 13.568-23.936h30.304a28.16 28.16 0 0 0 28.16-28.16v-44.8a28.16 28.16 0 0 0-28.16-28.16z m-140.8 106.72a56.32 56.32 0 1 1 0-112.64 56.32 56.32 0 0 1 0 112.64z"  horiz-adv-x="1024" />

    
    <glyph glyph-name="renshenshanghai" unicode="&#58898;" d="M0 896h1024v-1024H0zM466.56 760.96a73.152 73.152 0 1 0 0-146.272 73.152 73.152 0 0 0 0 146.304zM375.84 614.72c35.296-4.992 69.76-14.72 102.4-28.992 23.264-18.432 36.928-68.48 68.288-116.448 20.256-31.04 47.168-38.336 68.224-58.24 21.056-19.872 22.304-66.112-34.112-28.96a360.64 360.64 0 0 0-105.344 106.496s-52.192-35.68-31.168-135.744c40.224-48 91.808-100.384 124.544-135.488 15.68-49.152 12.16-202.208 11.968-213.6-0.192-11.424-66.88 4.96-68.256 29.248-1.344 24.32 19.616 101.248-13.76 142.496a978.816 978.816 0 0 1-140.064 125.248c-29.44 21.664-76.064 42.72-50.944 110.304 9.344 29.824 20.736 58.976 34.144 87.2 0 0-58.752 14.336-123.2-155.648 0 0-59.488 22.24-13.312 97.728 33.056 53.824 58.752 143.68 170.56 174.4zM273.408 323.84a570.752 570.752 0 0 0 85.088-64.96c16.96-20.8-34.816-79.04-153.344-255.168 0 0-72.064-8.192-34.112 58.24a167.648 167.648 0 0 0 34.112 58.24 393.728 393.728 0 0 1 68.256 203.616zM763.744 419.808a240.384 240.384 0 0 0-21.024-16.96l-43.904 39.2c8.32 5.76 16.16 12.224 23.424 19.296a175.36 175.36 0 0 1 0 248.128 182.496 182.496 0 0 1-23.424 19.328L742.72 768c7.328-5.248 14.336-10.912 21.024-16.96a234.336 234.336 0 0 0 0-331.232zM639.584 544.16a57.824 57.824 0 0 1-36 98.88l49.984 44.8a115.136 115.136 0 0 0 0-204.832l-49.984 45.056a56.192 56.192 0 0 1 36 16.096z"  horiz-adv-x="1024" />

    
    <glyph glyph-name="sheshiguzhang" unicode="&#58899;" d="M0 896h1024v-1024H0zM744.48 444.992v36.768H637.76a166.72 166.72 0 1 1-171.808-247.872v-30.624h36.928c3.776-12.64 8.8-24.864 15.04-36.48l-26.08-25.92 48.672-48.736h-205.76L160 398.208 334.72 704h319.04l145.888-255.36-18.816-18.976c-11.52 6.4-23.744 11.52-36.352 15.328zM853.088 231.104a165.568 165.568 0 0 0-28.32-68.8l21.568-21.44-39.392-39.552-21.568 21.76a162.304 162.304 0 0 0-68.768-28.448V64h-55.68v30.624a162.144 162.144 0 0 0-68.736 28.416l-21.6-21.728-39.36 39.552 21.568 21.44a165.184 165.184 0 0 0-28.352 68.8h-30.624v55.68h30.624c4.096 24.8 13.76 48.32 28.32 68.8l-21.568 21.44 39.36 39.552 21.6-21.728a162.144 162.144 0 0 0 68.768 28.416v30.656h55.68v-30.656c24.8-4.032 48.32-13.76 68.736-28.416l21.568 21.76 39.392-39.584-21.568-21.44c14.528-20.48 24.224-44 28.352-68.8h30.624v-55.68h-30.624z m-164.32 111.392a83.552 83.552 0 1 1 0-167.104 83.552 83.552 0 0 1 0 167.104z"  horiz-adv-x="1024" />

    
    <glyph glyph-name="jichufuwudamianjizhongduan" unicode="&#58900;" d="M0 896h1024v-1024H0zM516.928 221.536v-81.216H246.144A54.144 54.144 0 0 0 192 194.464v352c0 29.92 24.256 54.144 54.144 54.144h379.072c29.92 0 54.176-24.224 54.176-54.144v-192.256a135.36 135.36 0 0 1-162.464-132.672zM544 368.832a188.32 188.32 0 0 1-27.072 96.384s19.936-72-33.696-96.096a100.48 100.48 0 0 1-0.32 22.464c0 77.984-74.304 127.808-74.304 127.808s54.176-78.528 1.984-150.816a270.784 270.784 0 0 1-56.128 96.64s16.064-56.32-18.496-83.936c-2.72-10.816-4.672-18.4-5.92-24.352h-2.656c0-4.064 0.64-7.328 0.864-11.104a15.136 15.136 0 0 1 0.32-4.064c5.888-70.656 52-93.12 107.104-93.12A104.8 104.8 0 0 1 544 356.896h-0.896c0.416 3.776 0.896 7.584 0.896 11.904z m-297.856-255.616h270.784c-29.92 0-54.144-24.224-54.144-54.144h-216.64a27.072 27.072 0 0 0 0 54.144zM273.216 736h108.32v-27.072h108.32V736h108.288v-108.32H273.216zM787.68 32h-270.752a27.072 27.072 0 1 0 0 54.144h270.752a27.072 27.072 0 1 0 0-54.144zM625.216 221.536h-27.072v-108.32H544v108.32a108.32 108.32 0 1 0 216.64 0v-108.32h-135.424v108.32z"  horiz-adv-x="1024" />

    
    <glyph glyph-name="jichufuwuzhongduan" unicode="&#58901;" d="M0 896h1024v-1024H0zM521.824 221.536v-108.32c-29.696 0-53.856-23.904-54.176-53.6a246.048 246.048 0 0 0-242.848 253.44 253.632 253.632 0 0 0 62.08 187.36c36.256 40.64 18.24 127.264 18.24 127.264a200.128 200.128 0 0 0 81.28-189.536c64 86.4 74.432 201.312 27.04 297.856 0 0 171.584-68.8 189.536-243.68a293.76 293.76 0 0 1 27.104 135.36s106.336-77.984 108.16-298.368a134.72 134.72 0 0 1-216.416-107.776zM792.576 32h-270.752a27.072 27.072 0 1 0 0 54.144h270.752a27.072 27.072 0 0 0 0-54.144zM630.112 221.536h-27.072v-108.32h-54.144v108.32a108.32 108.32 0 0 0 216.64 0v-108.32H630.08v108.32z"  horiz-adv-x="1024" />

    
    <glyph glyph-name="fuwupinzhi" unicode="&#58902;" d="M0 896h1024v-1024H0zM237.824 520.864v-494.24H128V768h109.824v-137.28h109.824V713.088h-27.456a27.456 27.456 0 1 0 0 54.912h109.856a27.456 27.456 0 1 0 0-54.912h-27.456V630.72a164.736 164.736 0 0 0 164.736-164.768h-109.824c0 30.336-24.608 54.912-54.912 54.912H237.824zM669.344 25.344L516.64 0a57.28 57.28 0 0 0-38.4 16L287.68 141.12a18.24 18.24 0 0 0-6.72 24.992 36.8 36.8 0 0 0 50.048 13.44l178.432-65.632 88.64 32.032 7.648 28.48-129.888 16.96a18.336 18.336 0 0 0-18.304 18.4c0.064 20.16 16.416 36.48 36.608 36.48l157.728-22.496a54.72 54.72 0 0 0 23.68-1.088l53.056-14.272a54.912 54.912 0 0 0 38.816-67.296l-21.344-79.36a54.912 54.912 0 0 0-67.232-38.976l-9.472 2.56zM846.88 192.768c16.704-9.024 23.616-29.376 15.84-46.72l-21.312-79.584a29.76 29.76 0 1 0-53.056 14.272l21.312 79.36a36.096 36.096 0 0 0 37.216 32.64zM512.416 273.76a56.768 56.768 0 0 0-54.912 52.448 162.88 162.88 0 0 0 54.912 112.576 162.88 162.88 0 0 0 54.912-112.576 56.768 56.768 0 0 0-54.912-52.48z"  horiz-adv-x="1024" />

    
    <glyph glyph-name="zhongdianjichufuwuzhongduan" unicode="&#58903;" d="M0 896h1024v-1024H0zM867.872 81.568c-7.936 22.976-28.448 38.304-51.424 38.4v81.792l50.016-89.12c5.248-9.504 5.76-21.12 1.408-31.072z m-258.72 281.472l14.72 20.8h-137.6l55.04 175.936-192.576-234.56h137.568l-27.52-175.936 87.2 124.032a155.648 155.648 0 0 1-4.672-36.064v-117.28c-30.4 0-55.04-26.24-55.04-58.656H158.592a29.12 29.12 0 0 0-26.56 17.28 35.648 35.648 0 0 0 0.672 34.048l341.12 607.52a29.664 29.664 0 0 0 25.92 15.84c10.624 0 20.48-6.016 25.856-15.84l192.576-343.04a124 124 0 0 1-39.264 6.72 130.304 130.304 0 0 1-69.728-20.8zM651.36 237.248h-27.52v-117.28h-55.008v117.28c0 64.768 49.28 117.28 110.048 117.28 60.8 0 110.048-52.48 110.048-117.28v-117.28h-137.568v117.28zM541.312 90.656h275.136c15.168 0 27.52-13.12 27.52-29.344 0-16.192-12.352-29.312-27.52-29.312h-275.136c-15.2 0-27.52 13.12-27.52 29.312s12.32 29.344 27.52 29.344z"  horiz-adv-x="1024" />

    
    <glyph glyph-name="shebeishoumingsuoduan" unicode="&#58904;" d="M0 896h1024v-1024H0zM313.152 143.84c0 16.416 13.312 29.76 29.76 29.76h118.848c0.32-20.192 3.552-40.224 9.664-59.456h-128.544a29.728 29.728 0 0 0-29.728 29.696z m297.216 445.824a29.728 29.728 0 0 1-29.696 29.728h-267.52a29.728 29.728 0 0 1-29.696-29.728v-475.52c0-16.416 13.28-29.76 29.696-29.76h169.408a206.336 206.336 0 0 1 41.984-59.424H253.728A29.728 29.728 0 0 0 224 54.72V649.12c0 16.416 13.312 29.728 29.728 29.728h386.368c16.416 0 29.728-13.312 29.728-29.76v-267.456a206.944 206.944 0 0 1-59.456-9.536v217.6zM521.216 708.544h-148.608a29.728 29.728 0 1 0 0 59.456h148.608a29.728 29.728 0 1 0 0-59.456zM669.824 0a173.568 173.568 0 1 0 0.224 347.136A173.568 173.568 0 0 0 669.824 0z m118.88 203.296h-237.76v-59.456h237.76v59.456z"  horiz-adv-x="1024" />

    
    <glyph glyph-name="zhengcehegui" unicode="&#58905;" d="M0 896h1024v-1024H0zM721.44 66.88H302.56A46.56 46.56 0 0 0 256 113.472v512C256 651.2 276.832 672 302.56 672h232.704v-232.736H768v-325.824c0-25.696-20.832-46.528-46.56-46.528zM372.352 206.56h186.208a23.264 23.264 0 0 1 0 46.528h-186.208a23.264 23.264 0 0 1 0-46.528zM651.648 346.176h-279.296a23.264 23.264 0 0 1 0-46.528h279.296a23.264 23.264 0 0 1 0 46.528zM581.824 672h2.688L768 491.072v-5.248h-186.176z"  horiz-adv-x="1024" />

    
    <glyph glyph-name="huidaodingbu2" unicode="&#58920;" d="M516.43392 501.69856a5.69344 5.69344 0 0 1-8.87808 0l-73.04192-85.23776c-2.43712-2.84672-1.37216-5.18144 2.39616-5.18144h27.29984c3.75808 0 6.83008-3.072 6.83008-6.83008v-54.62016c0-3.75808 3.072-6.83008 6.83008-6.83008h68.25984c3.76832 0 6.83008 3.072 6.83008 6.83008v54.62016c0 3.76832 3.072 6.83008 6.83008 6.83008h27.29984c3.75808 0 4.83328 2.33472 2.38592 5.1712l-73.04192 85.248z m-72.704 18.83136h136.54016a13.64992 13.64992 0 1 1 0 27.31008H443.72992a13.64992 13.64992 0 1 1 0-27.31008z"  horiz-adv-x="1024" />

    
    <glyph glyph-name="jichufuwuzhongduan2" unicode="&#58921;" d="M0 896h1024v-1024H0zM521.824 221.536v-108.32c-29.696 0-53.856-23.904-54.176-53.6a246.048 246.048 0 0 0-242.848 253.44 253.632 253.632 0 0 0 62.08 187.36c36.256 40.64 18.24 127.264 18.24 127.264a200.128 200.128 0 0 0 81.28-189.536c64 86.4 74.432 201.312 27.04 297.856 0 0 171.584-68.8 189.536-243.68a293.76 293.76 0 0 1 27.104 135.36s106.336-77.984 108.16-298.368a134.72 134.72 0 0 1-216.416-107.776zM792.576 32h-270.752a27.072 27.072 0 1 0 0 54.144h270.752a27.072 27.072 0 0 0 0-54.144zM630.112 221.536h-27.072v-108.32h-54.144v108.32a108.32 108.32 0 0 0 216.64 0v-108.32H630.08v108.32z"  horiz-adv-x="1024" />

    
    <glyph glyph-name="shebeishoumingsuoduan2" unicode="&#58922;" d="M0 896h1024v-1024H0zM313.152 143.84c0 16.416 13.312 29.76 29.76 29.76h118.848c0.32-20.192 3.552-40.224 9.664-59.456h-128.544a29.728 29.728 0 0 0-29.728 29.696z m297.216 445.824a29.728 29.728 0 0 1-29.696 29.728h-267.52a29.728 29.728 0 0 1-29.696-29.728v-475.52c0-16.416 13.28-29.76 29.696-29.76h169.408a206.336 206.336 0 0 1 41.984-59.424H253.728A29.728 29.728 0 0 0 224 54.72V649.12c0 16.416 13.312 29.728 29.728 29.728h386.368c16.416 0 29.728-13.312 29.728-29.76v-267.456a206.944 206.944 0 0 1-59.456-9.536v217.6zM521.216 708.544h-148.608a29.728 29.728 0 1 0 0 59.456h148.608a29.728 29.728 0 1 0 0-59.456zM669.824 0a173.568 173.568 0 1 0 0.224 347.136A173.568 173.568 0 0 0 669.824 0z m118.88 203.296h-237.76v-59.456h237.76v59.456z"  horiz-adv-x="1024" />

    
    <glyph glyph-name="fuwupinzhi2" unicode="&#58923;" d="M0 896h1024v-1024H0zM237.824 520.864v-494.24H128V768h109.824v-137.28h109.824V713.088h-27.456a27.456 27.456 0 1 0 0 54.912h109.856a27.456 27.456 0 1 0 0-54.912h-27.456V630.72a164.736 164.736 0 0 0 164.736-164.768h-109.824c0 30.336-24.608 54.912-54.912 54.912H237.824zM669.344 25.344L516.64 0a57.28 57.28 0 0 0-38.4 16L287.68 141.12a18.24 18.24 0 0 0-6.72 24.992 36.8 36.8 0 0 0 50.048 13.44l178.432-65.632 88.64 32.032 7.648 28.48-129.888 16.96a18.336 18.336 0 0 0-18.304 18.4c0.064 20.16 16.416 36.48 36.608 36.48l157.728-22.496a54.72 54.72 0 0 0 23.68-1.088l53.056-14.272a54.912 54.912 0 0 0 38.816-67.296l-21.344-79.36a54.912 54.912 0 0 0-67.232-38.976l-9.472 2.56zM846.88 192.768c16.704-9.024 23.616-29.376 15.84-46.72l-21.312-79.584a29.76 29.76 0 1 0-53.056 14.272l21.312 79.36a36.096 36.096 0 0 0 37.216 32.64zM512.416 273.76a56.768 56.768 0 0 0-54.912 52.448 162.88 162.88 0 0 0 54.912 112.576 162.88 162.88 0 0 0 54.912-112.576 56.768 56.768 0 0 0-54.912-52.48z"  horiz-adv-x="1024" />

    
    <glyph glyph-name="xiaofang2" unicode="&#58924;" d="M0 896h1024v-1024H0zM504.992 196.576c-120 0-221.568 74.336-221.568 201.056a316 316 0 0 0 48.736 150.848c26.016 43.072 0 100.672 0 100.672a157.28 157.28 0 0 0 48.768-150.88A231.232 231.232 0 0 1 429.696 800S568.96 742.688 576 548.48c0 0 63.392 10.688 48.768 100.672 0 0 97.536-67.744 97.536-251.52 0-128.64-97.28-201.056-217.28-201.056zM297.152 114.272H736A41.152 41.152 0 0 0 736 32H297.152a41.152 41.152 0 0 0 0 82.272z"  horiz-adv-x="1024" />

    
    <glyph glyph-name="renshenshanghai2" unicode="&#58925;" d="M0 896h1024v-1024H0zM466.56 760.96a73.152 73.152 0 1 0 0-146.272 73.152 73.152 0 0 0 0 146.304zM375.84 614.72c35.296-4.992 69.76-14.72 102.4-28.992 23.264-18.432 36.928-68.48 68.288-116.448 20.256-31.04 47.168-38.336 68.224-58.24 21.056-19.872 22.304-66.112-34.112-28.96a360.64 360.64 0 0 0-105.344 106.496s-52.192-35.68-31.168-135.744c40.224-48 91.808-100.384 124.544-135.488 15.68-49.152 12.16-202.208 11.968-213.6-0.192-11.424-66.88 4.96-68.256 29.248-1.344 24.32 19.616 101.248-13.76 142.496a978.816 978.816 0 0 1-140.064 125.248c-29.44 21.664-76.064 42.72-50.944 110.304 9.344 29.824 20.736 58.976 34.144 87.2 0 0-58.752 14.336-123.2-155.648 0 0-59.488 22.24-13.312 97.728 33.056 53.824 58.752 143.68 170.56 174.4zM273.408 323.84a570.752 570.752 0 0 0 85.088-64.96c16.96-20.8-34.816-79.04-153.344-255.168 0 0-72.064-8.192-34.112 58.24a167.648 167.648 0 0 0 34.112 58.24 393.728 393.728 0 0 1 68.256 203.616zM763.744 419.808a240.384 240.384 0 0 0-21.024-16.96l-43.904 39.2c8.32 5.76 16.16 12.224 23.424 19.296a175.36 175.36 0 0 1 0 248.128 182.496 182.496 0 0 1-23.424 19.328L742.72 768c7.328-5.248 14.336-10.912 21.024-16.96a234.336 234.336 0 0 0 0-331.232zM639.584 544.16a57.824 57.824 0 0 1-36 98.88l49.984 44.8a115.136 115.136 0 0 0 0-204.832l-49.984 45.056a56.192 56.192 0 0 1 36 16.096z"  horiz-adv-x="1024" />

    
    <glyph glyph-name="zhengcehegui2" unicode="&#58926;" d="M0 896h1024v-1024H0zM721.44 66.88H302.56A46.56 46.56 0 0 0 256 113.472v512C256 651.2 276.832 672 302.56 672h232.704v-232.736H768v-325.824c0-25.696-20.832-46.528-46.56-46.528zM372.352 206.56h186.208a23.264 23.264 0 0 1 0 46.528h-186.208a23.264 23.264 0 0 1 0-46.528zM651.648 346.176h-279.296a23.264 23.264 0 0 1 0-46.528h279.296a23.264 23.264 0 0 1 0 46.528zM581.824 672h2.688L768 491.072v-5.248h-186.176z"  horiz-adv-x="1024" />

    
    <glyph glyph-name="fuwufeiyongjisuanshizhun2" unicode="&#58927;" d="M0 896h1024v-1024H0zM813.728 32h-100.576a50.272 50.272 0 0 0-50.304 50.272v100.576c0 27.776 22.528 50.304 50.304 50.304v100.576H310.848v-100.576c27.776 0 50.304-22.528 50.304-50.304v-100.576c0-27.744-22.528-50.272-50.304-50.272H210.272A50.272 50.272 0 0 0 160 82.272v100.576c0 27.776 22.528 50.304 50.272 50.304V384c0 27.776 22.528 50.272 50.304 50.272h201.152v100.576h-100.576a50.272 50.272 0 0 0-50.304 50.304V685.728c0 27.744 22.528 50.272 50.304 50.272h301.696c27.776 0 50.304-22.528 50.304-50.272v-100.576c0-27.776-22.528-50.304-50.304-50.304h-100.576v-100.576h201.152c27.776 0 50.304-22.496 50.304-50.272v-150.848c27.744 0 50.272-22.528 50.272-50.304v-100.576c0-27.744-22.528-50.272-50.272-50.272zM461.728 534.848h-100.576a50.272 50.272 0 0 0-50.304 50.304V685.728c0 27.744 22.528 50.272 50.304 50.272h301.696c27.776 0 50.304-22.528 50.304-50.272v-100.576c0-27.776-22.528-50.304-50.304-50.304H461.76z"  horiz-adv-x="1024" />

    
    <glyph glyph-name="jichufuwudamianjizhongduan2" unicode="&#58930;" d="M0 896h1024v-1024H0zM516.928 221.536v-81.216H246.144A54.144 54.144 0 0 0 192 194.464v352c0 29.92 24.256 54.144 54.144 54.144h379.072c29.92 0 54.176-24.224 54.176-54.144v-192.256a135.36 135.36 0 0 1-162.464-132.672zM544 368.832a188.32 188.32 0 0 1-27.072 96.384s19.936-72-33.696-96.096a100.48 100.48 0 0 1-0.32 22.464c0 77.984-74.304 127.808-74.304 127.808s54.176-78.528 1.984-150.816a270.784 270.784 0 0 1-56.128 96.64s16.064-56.32-18.496-83.936c-2.72-10.816-4.672-18.4-5.92-24.352h-2.656c0-4.064 0.64-7.328 0.864-11.104a15.136 15.136 0 0 1 0.32-4.064c5.888-70.656 52-93.12 107.104-93.12A104.8 104.8 0 0 1 544 356.896h-0.896c0.416 3.776 0.896 7.584 0.896 11.904z m-297.856-255.616h270.784c-29.92 0-54.144-24.224-54.144-54.144h-216.64a27.072 27.072 0 0 0 0 54.144zM273.216 736h108.32v-27.072h108.32V736h108.288v-108.32H273.216zM787.68 32h-270.752a27.072 27.072 0 1 0 0 54.144h270.752a27.072 27.072 0 1 0 0-54.144zM625.216 221.536h-27.072v-108.32H544v108.32a108.32 108.32 0 1 0 216.64 0v-108.32h-135.424v108.32z"  horiz-adv-x="1024" />

    
    <glyph glyph-name="sheshiguzhang2" unicode="&#58931;" d="M0 896h1024v-1024H0zM744.48 444.992v36.768H637.76a166.72 166.72 0 1 1-171.808-247.872v-30.624h36.928c3.776-12.64 8.8-24.864 15.04-36.48l-26.08-25.92 48.672-48.736h-205.76L160 398.208 334.72 704h319.04l145.888-255.36-18.816-18.976c-11.52 6.4-23.744 11.52-36.352 15.328zM853.088 231.104a165.568 165.568 0 0 0-28.32-68.8l21.568-21.44-39.392-39.552-21.568 21.76a162.304 162.304 0 0 0-68.768-28.448V64h-55.68v30.624a162.144 162.144 0 0 0-68.736 28.416l-21.6-21.728-39.36 39.552 21.568 21.44a165.184 165.184 0 0 0-28.352 68.8h-30.624v55.68h30.624c4.096 24.8 13.76 48.32 28.32 68.8l-21.568 21.44 39.36 39.552 21.6-21.728a162.144 162.144 0 0 0 68.768 28.416v30.656h55.68v-30.656c24.8-4.032 48.32-13.76 68.736-28.416l21.568 21.76 39.392-39.584-21.568-21.44c14.528-20.48 24.224-44 28.352-68.8h30.624v-55.68h-30.624z m-164.32 111.392a83.552 83.552 0 1 1 0-167.104 83.552 83.552 0 0 1 0 167.104z"  horiz-adv-x="1024" />

    
    <glyph glyph-name="huanjingpinzhi2" unicode="&#58932;" d="M0 896h1024v-1024H0zM618.688 426.528l38.08-40.544a196.672 196.672 0 0 1-111.168-100.256h-188.928l84.48-84.48H160l112.448 112.64h-84.48l84.48 84.192h-56.32l84.32 84.48 84.288-84.48h-56.32l54.304-54.08 77.504 82.528H357.12l130.528 140.8h-102.464L539.744 736l154.56-168.672h-102.4l130.496-140.8h-103.936 0.224z m-290.048-112.64l13.44-13.504 12.608 13.504h-26.048zM272.32 200.96h56.32v-56.32h168.96v140.8h47.872a193.792 193.792 0 0 1 16-197.12H187.84v56.32h84.48v56.32zM863.68 150.56h-30.304c-3.616-8.544-8.192-16.64-13.6-24.224l17.312-31.264a26.08 26.08 0 0 0-8.832-34.624l-41.792-25.056a23.68 23.68 0 0 0-32.96 8.992l-17.44 31.84a62.272 62.272 0 0 0-26.336 0l-17.44-31.84a23.584 23.584 0 0 0-32.96-8.992l-41.824 25.056a26.112 26.112 0 0 0-8.832 34.624l17.312 31.264a127.296 127.296 0 0 0-13.568 24.224h-30.304a28.16 28.16 0 0 0-28.16 28.16v44.8a28.16 28.16 0 0 0 28.16 28.16h30.304c3.616 8.416 8.192 16.448 13.568 23.904l-17.312 31.552a25.696 25.696 0 0 0 8.832 34.336l41.824 25.344a23.488 23.488 0 0 0 32.96-9.28l17.44-31.552c8.672 1.888 17.664 1.888 26.336 0l17.44 31.552a23.52 23.52 0 0 0 32.96 9.28l41.792-25.344c11.68-7.232 15.552-22.4 8.832-34.336l-17.28-31.552c5.376-7.456 9.92-15.488 13.568-23.936h30.304a28.16 28.16 0 0 0 28.16-28.16v-44.8a28.16 28.16 0 0 0-28.16-28.16z m-140.8 106.72a56.32 56.32 0 1 1 0-112.64 56.32 56.32 0 0 1 0 112.64z"  horiz-adv-x="1024" />

    
    <glyph glyph-name="chengbenbuhelizengjia2" unicode="&#58933;" d="M0 896h1024v-1024H0zM229.568 199.392c12.032-11.744 26.304-20.352 41.376-27.808 25.632-12.576 52.832-21.056 80.64-27.52 41.984-9.792 84.672-14.72 127.744-16.192 40.384-1.376 80.672 0.224 120.768 5.376 30.944 4 61.504 9.92 91.264 19.008 25.92 7.904 50.944 17.696 73.44 32.704 12.032 8 22.816 17.248 30.24 29.696 7.424 12.512 9.024 25.6 3.264 39.232-4.608 11.072-12.608 19.52-21.792 27.168-1.92 1.6-3.968 3.104-5.92 4.64-15.04-15.744-24.352-23.04-39.04-30.912-24.576-13.216-50.88-22.144-78.016-28.8-27.52-6.816-55.52-11.52-83.872-13.568-21.376-1.568-42.816-2.784-64.256-2.976-33.632-0.224-67.136 2.24-100.384 7.456-31.136 4.864-61.664 11.84-91.136 22.976-19.424 7.36-38.112 16.16-54.432 28.96-6.368 4.96-11.968 10.816-18.24 16.64-3.648-3.072-7.84-6.336-11.648-10.016-8.8-8.384-15.68-17.92-18.144-29.984l-0.96-4.896v-6.208c0.32-1.376 0.608-2.72 0.832-4.096 2.432-12.32 9.408-22.144 18.24-30.88z m553.376-38.144c-3.904 3.712-8.16 7.04-12.32 10.56-12.32-15.264-28.032-25.44-44.928-34.144-22.72-11.68-46.944-19.616-71.776-25.728a593.344 593.344 0 0 0-119.584-16.128 662.592 662.592 0 0 0-144.32 9.472c-32.928 5.92-65.024 14.496-95.36 28.512-14.56 6.72-28.48 14.56-40.448 25.216-4.384 3.84-8.32 8.192-12.736 12.576-3.936-3.328-8.128-6.624-12-10.24-8.736-8.448-15.616-18.016-18.048-30.048-0.352-1.696-0.64-3.456-0.96-5.152v-5.632c0.16-0.448 0.416-0.896 0.448-1.344 1.28-11.52 6.976-21.024 14.624-29.568 10.336-11.52 23.04-20.064 36.64-27.52 24.384-13.248 50.56-22.176 77.536-29.152 50.112-12.896 101.28-18.496 153.024-19.52a730.4 730.4 0 0 1 108.608 5.952 560.32 560.32 0 0 1 87.68 18.08c26.784 8 52.64 18.016 75.904 33.472 12.032 7.968 22.784 17.248 30.24 29.632 6.08 10.272 8.384 21.184 5.44 32.896-2.88 11.072-9.472 19.968-17.664 27.84zM254.24 302.112c18.4-13.12 38.912-22.24 60.352-29.536 44.352-15.04 90.336-22.304 137.024-25.728 17.344-1.28 34.816-1.6 52.224-2.368a846.4 846.4 0 0 1 86.432 4.992 578.24 578.24 0 0 1 80.416 14.656c28.704 7.488 56.32 17.376 81.344 33.152 15.104 9.504 28.352 20.96 37.76 36.096 10.464 16.736 14.368 34.752 10.56 54.08-3.424 16.992-12.288 31.328-24.736 43.52-16.608 16.32-36.768 27.328-58.24 36.224-28.16 11.712-57.664 18.976-87.712 24.416a672.896 672.896 0 0 1-95.232 9.888 732.224 732.224 0 0 1-112.96-4.352c-24.576-2.88-48.896-7.008-72.896-12.928-27.68-6.912-54.528-15.904-79.328-29.952-16.832-9.536-32.032-20.96-42.944-36.832-17.088-24.864-19.616-51.008-6.048-78.144 7.744-15.36 19.904-27.2 33.984-37.184zM752.864 647.872l-4.864-139.52c-0.64-19.296-17.76-34.336-38.144-33.6-20.416 0.704-36.416 16.896-35.744 36.16l3.68 104.64-110.816 3.904c-20.416 0.704-36.416 16.896-35.744 36.16 0.672 19.264 17.76 34.304 38.176 33.6l147.744-5.152c20.416-0.704 36.384-16.896 35.712-36.16z"  horiz-adv-x="1024" />

    
    <glyph glyph-name="chaoyusuan2" unicode="&#58934;" d="M0 896h1024v-1024H0zM475.2 216.352v188.16h77.696v-29.76c16 13.76 33.92 25.216 53.152 33.952V724.736a27.68 27.68 0 0 1-27.68 27.744H188.8a27.712 27.712 0 0 1-27.744-27.744v-565.952c0-15.328 12.448-27.68 27.744-27.68h298.688a222.016 222.016 0 0 0-12.288 85.216v0.032z m77.696 236.576H475.2v77.696h77.696v-77.696zM214.24 695.072H552.96v-100.352H214.24V695.072z m77.696-494.304H214.24v77.696h77.696v-77.696z m0 126.144H214.24v77.664h77.696v-77.664z m0 126.016H214.24v77.696h77.696v-77.696z m130.432-252.16h-77.664v77.696h77.664v-77.696z m0 126.144h-77.664v77.664h77.664v-77.664z m0 126.016h-77.664v77.696h77.664v-77.696zM678.4 422.4a211.232 211.232 0 1 0-196.288-289.28 207.2 207.2 0 0 0-14.816 73.664c-0.096 1.6-0.096 2.912-0.096 4.512a210.368 210.368 0 0 0 57.28 144.576A210.752 210.752 0 0 0 678.4 422.4z m58.464-200.992h-44.32L748.8 326.4h-28.32l-31.808-64.384c-8.48-17.536-13.728-29.12-15.584-34.848h-0.576c-5.6 13.92-21.408 47.072-47.36 99.232H595.2l55.616-104.96h-45.632v-23.328h53.504v-31.936h-53.504v-23.488h53.504V96h26.56v46.656h51.616v23.488h-51.616v31.968h51.616v23.296z"  horiz-adv-x="1024" />

    
    <glyph glyph-name="zhongdianjichufuwuzhongduan2" unicode="&#58935;" d="M0 896h1024v-1024H0zM867.872 81.568c-7.936 22.976-28.448 38.304-51.424 38.4v81.792l50.016-89.12c5.248-9.504 5.76-21.12 1.408-31.072z m-258.72 281.472l14.72 20.8h-137.6l55.04 175.936-192.576-234.56h137.568l-27.52-175.936 87.2 124.032a155.648 155.648 0 0 1-4.672-36.064v-117.28c-30.4 0-55.04-26.24-55.04-58.656H158.592a29.12 29.12 0 0 0-26.56 17.28 35.648 35.648 0 0 0 0.672 34.048l341.12 607.52a29.664 29.664 0 0 0 25.92 15.84c10.624 0 20.48-6.016 25.856-15.84l192.576-343.04a124 124 0 0 1-39.264 6.72 130.304 130.304 0 0 1-69.728-20.8zM651.36 237.248h-27.52v-117.28h-55.008v117.28c0 64.768 49.28 117.28 110.048 117.28 60.8 0 110.048-52.48 110.048-117.28v-117.28h-137.568v117.28zM541.312 90.656h275.136c15.168 0 27.52-13.12 27.52-29.344 0-16.192-12.352-29.312-27.52-29.312h-275.136c-15.2 0-27.52 13.12-27.52 29.312s12.32 29.344 27.52 29.344z"  horiz-adv-x="1024" />

    
    <glyph glyph-name="huanjingpinzhi1" unicode="&#58906;" d="M0 896h1024v-1024H0zM618.688 426.528l38.08-40.544a196.672 196.672 0 0 1-111.168-100.256h-188.928l84.48-84.48H160l112.448 112.64h-84.48l84.48 84.192h-56.32l84.32 84.48 84.288-84.48h-56.32l54.304-54.08 77.504 82.528H357.12l130.528 140.8h-102.464L539.744 736l154.56-168.672h-102.4l130.496-140.8h-103.936 0.224z m-290.048-112.64l13.44-13.504 12.608 13.504h-26.048zM272.32 200.96h56.32v-56.32h168.96v140.8h47.872a193.792 193.792 0 0 1 16-197.12H187.84v56.32h84.48v56.32zM863.68 150.56h-30.304c-3.616-8.544-8.192-16.64-13.6-24.224l17.312-31.264a26.08 26.08 0 0 0-8.832-34.624l-41.792-25.056a23.68 23.68 0 0 0-32.96 8.992l-17.44 31.84a62.272 62.272 0 0 0-26.336 0l-17.44-31.84a23.584 23.584 0 0 0-32.96-8.992l-41.824 25.056a26.112 26.112 0 0 0-8.832 34.624l17.312 31.264a127.296 127.296 0 0 0-13.568 24.224h-30.304a28.16 28.16 0 0 0-28.16 28.16v44.8a28.16 28.16 0 0 0 28.16 28.16h30.304c3.616 8.416 8.192 16.448 13.568 23.904l-17.312 31.552a25.696 25.696 0 0 0 8.832 34.336l41.824 25.344a23.488 23.488 0 0 0 32.96-9.28l17.44-31.552c8.672 1.888 17.664 1.888 26.336 0l17.44 31.552a23.52 23.52 0 0 0 32.96 9.28l41.792-25.344c11.68-7.232 15.552-22.4 8.832-34.336l-17.28-31.552c5.376-7.456 9.92-15.488 13.568-23.936h30.304a28.16 28.16 0 0 0 28.16-28.16v-44.8a28.16 28.16 0 0 0-28.16-28.16z m-140.8 106.72a56.32 56.32 0 1 1 0-112.64 56.32 56.32 0 0 1 0 112.64z"  horiz-adv-x="1024" />

    
    <glyph glyph-name="jichufuwuzhongduan1" unicode="&#58907;" d="M0 896h1024v-1024H0zM521.824 221.536v-108.32c-29.696 0-53.856-23.904-54.176-53.6a246.048 246.048 0 0 0-242.848 253.44 253.632 253.632 0 0 0 62.08 187.36c36.256 40.64 18.24 127.264 18.24 127.264a200.128 200.128 0 0 0 81.28-189.536c64 86.4 74.432 201.312 27.04 297.856 0 0 171.584-68.8 189.536-243.68a293.76 293.76 0 0 1 27.104 135.36s106.336-77.984 108.16-298.368a134.72 134.72 0 0 1-216.416-107.776zM792.576 32h-270.752a27.072 27.072 0 1 0 0 54.144h270.752a27.072 27.072 0 0 0 0-54.144zM630.112 221.536h-27.072v-108.32h-54.144v108.32a108.32 108.32 0 0 0 216.64 0v-108.32H630.08v108.32z"  horiz-adv-x="1024" />

    
    <glyph glyph-name="fuwufeiyongjisuanshizhun1" unicode="&#58909;" d="M0 896h1024v-1024H0zM813.728 32h-100.576a50.272 50.272 0 0 0-50.304 50.272v100.576c0 27.776 22.528 50.304 50.304 50.304v100.576H310.848v-100.576c27.776 0 50.304-22.528 50.304-50.304v-100.576c0-27.744-22.528-50.272-50.304-50.272H210.272A50.272 50.272 0 0 0 160 82.272v100.576c0 27.776 22.528 50.304 50.272 50.304V384c0 27.776 22.528 50.272 50.304 50.272h201.152v100.576h-100.576a50.272 50.272 0 0 0-50.304 50.304V685.728c0 27.744 22.528 50.272 50.304 50.272h301.696c27.776 0 50.304-22.528 50.304-50.272v-100.576c0-27.776-22.528-50.304-50.304-50.304h-100.576v-100.576h201.152c27.776 0 50.304-22.496 50.304-50.272v-150.848c27.744 0 50.272-22.528 50.272-50.304v-100.576c0-27.744-22.528-50.272-50.272-50.272zM461.728 534.848h-100.576a50.272 50.272 0 0 0-50.304 50.304V685.728c0 27.744 22.528 50.272 50.304 50.272h301.696c27.776 0 50.304-22.528 50.304-50.272v-100.576c0-27.776-22.528-50.304-50.304-50.304H461.76z"  horiz-adv-x="1024" />

    
    <glyph glyph-name="chaoyusuan1" unicode="&#58910;" d="M0 896h1024v-1024H0zM475.2 216.352v188.16h77.696v-29.76c16 13.76 33.92 25.216 53.152 33.952V724.736a27.68 27.68 0 0 1-27.68 27.744H188.8a27.712 27.712 0 0 1-27.744-27.744v-565.952c0-15.328 12.448-27.68 27.744-27.68h298.688a222.016 222.016 0 0 0-12.288 85.216v0.032z m77.696 236.576H475.2v77.696h77.696v-77.696zM214.24 695.072H552.96v-100.352H214.24V695.072z m77.696-494.304H214.24v77.696h77.696v-77.696z m0 126.144H214.24v77.664h77.696v-77.664z m0 126.016H214.24v77.696h77.696v-77.696z m130.432-252.16h-77.664v77.696h77.664v-77.696z m0 126.144h-77.664v77.664h77.664v-77.664z m0 126.016h-77.664v77.696h77.664v-77.696zM678.4 422.4a211.232 211.232 0 1 0-196.288-289.28 207.2 207.2 0 0 0-14.816 73.664c-0.096 1.6-0.096 2.912-0.096 4.512a210.368 210.368 0 0 0 57.28 144.576A210.752 210.752 0 0 0 678.4 422.4z m58.464-200.992h-44.32L748.8 326.4h-28.32l-31.808-64.384c-8.48-17.536-13.728-29.12-15.584-34.848h-0.576c-5.6 13.92-21.408 47.072-47.36 99.232H595.2l55.616-104.96h-45.632v-23.328h53.504v-31.936h-53.504v-23.488h53.504V96h26.56v46.656h51.616v23.488h-51.616v31.968h51.616v23.296z"  horiz-adv-x="1024" />

    
    <glyph glyph-name="huidaodingbu1" unicode="&#58911;" d="M516.43392 501.69856a5.69344 5.69344 0 0 1-8.87808 0l-73.04192-85.23776c-2.43712-2.84672-1.37216-5.18144 2.39616-5.18144h27.29984c3.75808 0 6.83008-3.072 6.83008-6.83008v-54.62016c0-3.75808 3.072-6.83008 6.83008-6.83008h68.25984c3.76832 0 6.83008 3.072 6.83008 6.83008v54.62016c0 3.76832 3.072 6.83008 6.83008 6.83008h27.29984c3.75808 0 4.83328 2.33472 2.38592 5.1712l-73.04192 85.248z m-72.704 18.83136h136.54016a13.64992 13.64992 0 1 1 0 27.31008H443.72992a13.64992 13.64992 0 1 1 0-27.31008z"  horiz-adv-x="1024" />

    
    <glyph glyph-name="xiaofang1" unicode="&#58912;" d="M0 896h1024v-1024H0zM504.992 196.576c-120 0-221.568 74.336-221.568 201.056a316 316 0 0 0 48.736 150.848c26.016 43.072 0 100.672 0 100.672a157.28 157.28 0 0 0 48.768-150.88A231.232 231.232 0 0 1 429.696 800S568.96 742.688 576 548.48c0 0 63.392 10.688 48.768 100.672 0 0 97.536-67.744 97.536-251.52 0-128.64-97.28-201.056-217.28-201.056zM297.152 114.272H736A41.152 41.152 0 0 0 736 32H297.152a41.152 41.152 0 0 0 0 82.272z"  horiz-adv-x="1024" />

    
    <glyph glyph-name="fuwupinzhi1" unicode="&#58913;" d="M0 896h1024v-1024H0zM237.824 520.864v-494.24H128V768h109.824v-137.28h109.824V713.088h-27.456a27.456 27.456 0 1 0 0 54.912h109.856a27.456 27.456 0 1 0 0-54.912h-27.456V630.72a164.736 164.736 0 0 0 164.736-164.768h-109.824c0 30.336-24.608 54.912-54.912 54.912H237.824zM669.344 25.344L516.64 0a57.28 57.28 0 0 0-38.4 16L287.68 141.12a18.24 18.24 0 0 0-6.72 24.992 36.8 36.8 0 0 0 50.048 13.44l178.432-65.632 88.64 32.032 7.648 28.48-129.888 16.96a18.336 18.336 0 0 0-18.304 18.4c0.064 20.16 16.416 36.48 36.608 36.48l157.728-22.496a54.72 54.72 0 0 0 23.68-1.088l53.056-14.272a54.912 54.912 0 0 0 38.816-67.296l-21.344-79.36a54.912 54.912 0 0 0-67.232-38.976l-9.472 2.56zM846.88 192.768c16.704-9.024 23.616-29.376 15.84-46.72l-21.312-79.584a29.76 29.76 0 1 0-53.056 14.272l21.312 79.36a36.096 36.096 0 0 0 37.216 32.64zM512.416 273.76a56.768 56.768 0 0 0-54.912 52.448 162.88 162.88 0 0 0 54.912 112.576 162.88 162.88 0 0 0 54.912-112.576 56.768 56.768 0 0 0-54.912-52.48z"  horiz-adv-x="1024" />

    
    <glyph glyph-name="chengbenbuhelizengjia1" unicode="&#58914;" d="M0 896h1024v-1024H0zM229.568 199.392c12.032-11.744 26.304-20.352 41.376-27.808 25.632-12.576 52.832-21.056 80.64-27.52 41.984-9.792 84.672-14.72 127.744-16.192 40.384-1.376 80.672 0.224 120.768 5.376 30.944 4 61.504 9.92 91.264 19.008 25.92 7.904 50.944 17.696 73.44 32.704 12.032 8 22.816 17.248 30.24 29.696 7.424 12.512 9.024 25.6 3.264 39.232-4.608 11.072-12.608 19.52-21.792 27.168-1.92 1.6-3.968 3.104-5.92 4.64-15.04-15.744-24.352-23.04-39.04-30.912-24.576-13.216-50.88-22.144-78.016-28.8-27.52-6.816-55.52-11.52-83.872-13.568-21.376-1.568-42.816-2.784-64.256-2.976-33.632-0.224-67.136 2.24-100.384 7.456-31.136 4.864-61.664 11.84-91.136 22.976-19.424 7.36-38.112 16.16-54.432 28.96-6.368 4.96-11.968 10.816-18.24 16.64-3.648-3.072-7.84-6.336-11.648-10.016-8.8-8.384-15.68-17.92-18.144-29.984l-0.96-4.896v-6.208c0.32-1.376 0.608-2.72 0.832-4.096 2.432-12.32 9.408-22.144 18.24-30.88z m553.376-38.144c-3.904 3.712-8.16 7.04-12.32 10.56-12.32-15.264-28.032-25.44-44.928-34.144-22.72-11.68-46.944-19.616-71.776-25.728a593.344 593.344 0 0 0-119.584-16.128 662.592 662.592 0 0 0-144.32 9.472c-32.928 5.92-65.024 14.496-95.36 28.512-14.56 6.72-28.48 14.56-40.448 25.216-4.384 3.84-8.32 8.192-12.736 12.576-3.936-3.328-8.128-6.624-12-10.24-8.736-8.448-15.616-18.016-18.048-30.048-0.352-1.696-0.64-3.456-0.96-5.152v-5.632c0.16-0.448 0.416-0.896 0.448-1.344 1.28-11.52 6.976-21.024 14.624-29.568 10.336-11.52 23.04-20.064 36.64-27.52 24.384-13.248 50.56-22.176 77.536-29.152 50.112-12.896 101.28-18.496 153.024-19.52a730.4 730.4 0 0 1 108.608 5.952 560.32 560.32 0 0 1 87.68 18.08c26.784 8 52.64 18.016 75.904 33.472 12.032 7.968 22.784 17.248 30.24 29.632 6.08 10.272 8.384 21.184 5.44 32.896-2.88 11.072-9.472 19.968-17.664 27.84zM254.24 302.112c18.4-13.12 38.912-22.24 60.352-29.536 44.352-15.04 90.336-22.304 137.024-25.728 17.344-1.28 34.816-1.6 52.224-2.368a846.4 846.4 0 0 1 86.432 4.992 578.24 578.24 0 0 1 80.416 14.656c28.704 7.488 56.32 17.376 81.344 33.152 15.104 9.504 28.352 20.96 37.76 36.096 10.464 16.736 14.368 34.752 10.56 54.08-3.424 16.992-12.288 31.328-24.736 43.52-16.608 16.32-36.768 27.328-58.24 36.224-28.16 11.712-57.664 18.976-87.712 24.416a672.896 672.896 0 0 1-95.232 9.888 732.224 732.224 0 0 1-112.96-4.352c-24.576-2.88-48.896-7.008-72.896-12.928-27.68-6.912-54.528-15.904-79.328-29.952-16.832-9.536-32.032-20.96-42.944-36.832-17.088-24.864-19.616-51.008-6.048-78.144 7.744-15.36 19.904-27.2 33.984-37.184zM752.864 647.872l-4.864-139.52c-0.64-19.296-17.76-34.336-38.144-33.6-20.416 0.704-36.416 16.896-35.744 36.16l3.68 104.64-110.816 3.904c-20.416 0.704-36.416 16.896-35.744 36.16 0.672 19.264 17.76 34.304 38.176 33.6l147.744-5.152c20.416-0.704 36.384-16.896 35.712-36.16z"  horiz-adv-x="1024" />

    
    <glyph glyph-name="sheshiguzhang1" unicode="&#58915;" d="M0 896h1024v-1024H0zM744.48 444.992v36.768H637.76a166.72 166.72 0 1 1-171.808-247.872v-30.624h36.928c3.776-12.64 8.8-24.864 15.04-36.48l-26.08-25.92 48.672-48.736h-205.76L160 398.208 334.72 704h319.04l145.888-255.36-18.816-18.976c-11.52 6.4-23.744 11.52-36.352 15.328zM853.088 231.104a165.568 165.568 0 0 0-28.32-68.8l21.568-21.44-39.392-39.552-21.568 21.76a162.304 162.304 0 0 0-68.768-28.448V64h-55.68v30.624a162.144 162.144 0 0 0-68.736 28.416l-21.6-21.728-39.36 39.552 21.568 21.44a165.184 165.184 0 0 0-28.352 68.8h-30.624v55.68h30.624c4.096 24.8 13.76 48.32 28.32 68.8l-21.568 21.44 39.36 39.552 21.6-21.728a162.144 162.144 0 0 0 68.768 28.416v30.656h55.68v-30.656c24.8-4.032 48.32-13.76 68.736-28.416l21.568 21.76 39.392-39.584-21.568-21.44c14.528-20.48 24.224-44 28.352-68.8h30.624v-55.68h-30.624z m-164.32 111.392a83.552 83.552 0 1 1 0-167.104 83.552 83.552 0 0 1 0 167.104z"  horiz-adv-x="1024" />

    
    <glyph glyph-name="zhongdianjichufuwuzhongduan1" unicode="&#58916;" d="M0 896h1024v-1024H0zM867.872 81.568c-7.936 22.976-28.448 38.304-51.424 38.4v81.792l50.016-89.12c5.248-9.504 5.76-21.12 1.408-31.072z m-258.72 281.472l14.72 20.8h-137.6l55.04 175.936-192.576-234.56h137.568l-27.52-175.936 87.2 124.032a155.648 155.648 0 0 1-4.672-36.064v-117.28c-30.4 0-55.04-26.24-55.04-58.656H158.592a29.12 29.12 0 0 0-26.56 17.28 35.648 35.648 0 0 0 0.672 34.048l341.12 607.52a29.664 29.664 0 0 0 25.92 15.84c10.624 0 20.48-6.016 25.856-15.84l192.576-343.04a124 124 0 0 1-39.264 6.72 130.304 130.304 0 0 1-69.728-20.8zM651.36 237.248h-27.52v-117.28h-55.008v117.28c0 64.768 49.28 117.28 110.048 117.28 60.8 0 110.048-52.48 110.048-117.28v-117.28h-137.568v117.28zM541.312 90.656h275.136c15.168 0 27.52-13.12 27.52-29.344 0-16.192-12.352-29.312-27.52-29.312h-275.136c-15.2 0-27.52 13.12-27.52 29.312s12.32 29.344 27.52 29.344z"  horiz-adv-x="1024" />

    
    <glyph glyph-name="jichufuwudamianjizhongduan1" unicode="&#58917;" d="M0 896h1024v-1024H0zM516.928 221.536v-81.216H246.144A54.144 54.144 0 0 0 192 194.464v352c0 29.92 24.256 54.144 54.144 54.144h379.072c29.92 0 54.176-24.224 54.176-54.144v-192.256a135.36 135.36 0 0 1-162.464-132.672zM544 368.832a188.32 188.32 0 0 1-27.072 96.384s19.936-72-33.696-96.096a100.48 100.48 0 0 1-0.32 22.464c0 77.984-74.304 127.808-74.304 127.808s54.176-78.528 1.984-150.816a270.784 270.784 0 0 1-56.128 96.64s16.064-56.32-18.496-83.936c-2.72-10.816-4.672-18.4-5.92-24.352h-2.656c0-4.064 0.64-7.328 0.864-11.104a15.136 15.136 0 0 1 0.32-4.064c5.888-70.656 52-93.12 107.104-93.12A104.8 104.8 0 0 1 544 356.896h-0.896c0.416 3.776 0.896 7.584 0.896 11.904z m-297.856-255.616h270.784c-29.92 0-54.144-24.224-54.144-54.144h-216.64a27.072 27.072 0 0 0 0 54.144zM273.216 736h108.32v-27.072h108.32V736h108.288v-108.32H273.216zM787.68 32h-270.752a27.072 27.072 0 1 0 0 54.144h270.752a27.072 27.072 0 1 0 0-54.144zM625.216 221.536h-27.072v-108.32H544v108.32a108.32 108.32 0 1 0 216.64 0v-108.32h-135.424v108.32z"  horiz-adv-x="1024" />

    
    <glyph glyph-name="shebeishoumingsuoduan1" unicode="&#58918;" d="M0 896h1024v-1024H0zM313.152 143.84c0 16.416 13.312 29.76 29.76 29.76h118.848c0.32-20.192 3.552-40.224 9.664-59.456h-128.544a29.728 29.728 0 0 0-29.728 29.696z m297.216 445.824a29.728 29.728 0 0 1-29.696 29.728h-267.52a29.728 29.728 0 0 1-29.696-29.728v-475.52c0-16.416 13.28-29.76 29.696-29.76h169.408a206.336 206.336 0 0 1 41.984-59.424H253.728A29.728 29.728 0 0 0 224 54.72V649.12c0 16.416 13.312 29.728 29.728 29.728h386.368c16.416 0 29.728-13.312 29.728-29.76v-267.456a206.944 206.944 0 0 1-59.456-9.536v217.6zM521.216 708.544h-148.608a29.728 29.728 0 1 0 0 59.456h148.608a29.728 29.728 0 1 0 0-59.456zM669.824 0a173.568 173.568 0 1 0 0.224 347.136A173.568 173.568 0 0 0 669.824 0z m118.88 203.296h-237.76v-59.456h237.76v59.456z"  horiz-adv-x="1024" />

    
    <glyph glyph-name="zhengcehegui1" unicode="&#58919;" d="M0 896h1024v-1024H0zM721.44 66.88H302.56A46.56 46.56 0 0 0 256 113.472v512C256 651.2 276.832 672 302.56 672h232.704v-232.736H768v-325.824c0-25.696-20.832-46.528-46.56-46.528zM372.352 206.56h186.208a23.264 23.264 0 0 1 0 46.528h-186.208a23.264 23.264 0 0 1 0-46.528zM651.648 346.176h-279.296a23.264 23.264 0 0 1 0-46.528h279.296a23.264 23.264 0 0 1 0 46.528zM581.824 672h2.688L768 491.072v-5.248h-186.176z"  horiz-adv-x="1024" />

    
    <glyph glyph-name="renshenshanghai1" unicode="&#58936;" d="M0 896h1024v-1024H0zM466.56 760.96a73.152 73.152 0 1 0 0-146.272 73.152 73.152 0 0 0 0 146.304zM375.84 614.72c35.296-4.992 69.76-14.72 102.4-28.992 23.264-18.432 36.928-68.48 68.288-116.448 20.256-31.04 47.168-38.336 68.224-58.24 21.056-19.872 22.304-66.112-34.112-28.96a360.64 360.64 0 0 0-105.344 106.496s-52.192-35.68-31.168-135.744c40.224-48 91.808-100.384 124.544-135.488 15.68-49.152 12.16-202.208 11.968-213.6-0.192-11.424-66.88 4.96-68.256 29.248-1.344 24.32 19.616 101.248-13.76 142.496a978.816 978.816 0 0 1-140.064 125.248c-29.44 21.664-76.064 42.72-50.944 110.304 9.344 29.824 20.736 58.976 34.144 87.2 0 0-58.752 14.336-123.2-155.648 0 0-59.488 22.24-13.312 97.728 33.056 53.824 58.752 143.68 170.56 174.4zM273.408 323.84a570.752 570.752 0 0 0 85.088-64.96c16.96-20.8-34.816-79.04-153.344-255.168 0 0-72.064-8.192-34.112 58.24a167.648 167.648 0 0 0 34.112 58.24 393.728 393.728 0 0 1 68.256 203.616zM763.744 419.808a240.384 240.384 0 0 0-21.024-16.96l-43.904 39.2c8.32 5.76 16.16 12.224 23.424 19.296a175.36 175.36 0 0 1 0 248.128 182.496 182.496 0 0 1-23.424 19.328L742.72 768c7.328-5.248 14.336-10.912 21.024-16.96a234.336 234.336 0 0 0 0-331.232zM639.584 544.16a57.824 57.824 0 0 1-36 98.88l49.984 44.8a115.136 115.136 0 0 0 0-204.832l-49.984 45.056a56.192 56.192 0 0 1 36 16.096z"  horiz-adv-x="1024" />

    


  </font>
</defs>
</svg>
